<svg width="36" height="36" viewBox="0 0 36 36" fill="none" xmlns="http://www.w3.org/2000/svg">
<path d="M17.7981 0.626221C8.11428 0.626221 0.235779 8.50293 0.235779 18.185C0.235779 27.8671 8.11418 35.7438 17.7981 35.7438C27.4819 35.7438 35.3601 27.8671 35.3601 18.185C35.3601 8.50293 27.4819 0.626221 17.7981 0.626221ZM17.7981 34.8488C8.60778 34.8488 1.13078 27.3735 1.13078 18.185C1.13078 8.99643 8.60778 1.52124 17.7981 1.52124C26.9884 1.52124 34.4651 8.99653 34.4651 18.185C34.4651 27.3736 26.9884 34.8488 17.7981 34.8488Z" fill="white"/>
<path d="M15.5166 12.8101V15.7015H12.1844V19.4951H15.5166V28.6658H19.6178V19.4951H22.6758L23.2576 15.7015H19.6179V13.2397C19.6179 12.2018 20.1263 11.1901 21.7566 11.1901H23.4115V7.96048C23.4115 7.96048 21.9096 7.7041 20.4738 7.7041C17.476 7.7041 15.5166 9.52099 15.5166 12.8101Z" fill="white"/>
</svg>
