<svg width="36" height="36" viewBox="0 0 36 36" fill="none" xmlns="http://www.w3.org/2000/svg">
<path d="M17.7979 0.072998C8.11408 0.072998 0.235779 7.94971 0.235779 17.6318C0.235779 27.3139 8.11408 35.1906 17.7979 35.1906C27.4817 35.1906 35.36 27.3139 35.36 17.6318C35.36 7.94971 27.4817 0.072998 17.7979 0.072998ZM17.7979 34.2956C8.60758 34.2956 1.13069 26.8203 1.13069 17.6318C1.13069 8.44321 8.60758 0.967987 17.7979 0.967987C26.9882 0.967987 34.4651 8.44331 34.4651 17.6318C34.4651 26.8204 26.9882 34.2956 17.7979 34.2956Z" fill="white"/>
<path d="M22.3323 12.126C21.7778 12.126 21.3282 12.5756 21.3282 13.1301C21.3282 13.6846 21.7778 14.1343 22.3323 14.1343C22.8868 14.1343 23.3364 13.6847 23.3364 13.1301C23.3364 12.5755 22.8868 12.126 22.3323 12.126Z" fill="white"/>
<path d="M17.8683 13.4138C15.5425 13.4138 13.6503 15.3059 13.6503 17.6317C13.6503 19.9575 15.5425 21.8496 17.8683 21.8496C20.194 21.8496 22.0862 19.9574 22.0862 17.6317C22.0862 15.306 20.194 13.4138 17.8683 13.4138ZM17.8683 20.3335C16.3784 20.3335 15.1664 19.1215 15.1664 17.6316C15.1664 16.1417 16.3785 14.9298 17.8683 14.9298C19.3581 14.9298 20.57 16.1418 20.57 17.6316C20.57 19.1214 19.358 20.3335 17.8683 20.3335Z" fill="white"/>
<path d="M21.2168 9.06796H14.3788C11.5421 9.06796 9.23425 11.3757 9.23425 14.2125V21.0508C9.23425 23.8875 11.5421 26.1953 14.3788 26.1953H21.2168C24.0535 26.1953 26.3616 23.8875 26.3616 21.0508V14.2125C26.3616 11.3757 24.0535 9.06796 21.2168 9.06796ZM24.7503 21.0509C24.7503 22.9992 23.1652 24.5842 21.2168 24.5842H14.3788C12.4304 24.5842 10.8455 22.9993 10.8455 21.0509V14.2126C10.8455 12.2642 12.4304 10.6794 14.3788 10.6794H21.2168C23.1652 10.6794 24.7503 12.2642 24.7503 14.2126V21.0509Z" fill="white"/>
</svg>
