<svg width="127" height="75" viewBox="0 0 127 75" fill="none" xmlns="http://www.w3.org/2000/svg">
<path d="M114.985 53.5173C114.985 53.9547 114.708 54.3088 114.366 54.3088H113.12C112.778 54.3088 112.501 53.9547 112.501 53.5173V50.7874C112.501 50.5662 112.321 50.3858 112.098 50.3845C111.877 50.3845 111.697 50.5635 111.696 50.7859V53.5173C111.696 53.9547 111.419 54.3088 111.082 54.3088H110.092C109.766 54.2728 109.513 54.0091 109.489 53.6824V51.1428C109.489 50.9216 109.31 50.7413 109.088 50.74H109.086C108.865 50.74 108.685 50.9163 108.684 51.1375L108.672 53.512C108.672 53.5841 108.675 53.6577 108.684 53.7297V54.2839H100.12V51.678C100.119 50.5224 99.1821 49.5881 98.0265 49.5881H95.9278V51.9417C95.9278 52.1641 96.108 52.344 96.3304 52.344C96.5528 52.344 96.733 52.1641 96.733 51.9417V50.3884H98.0265C98.7385 50.3884 99.315 50.9663 99.315 51.677V54.2815H92.2424V47.8538C92.2424 47.6314 92.0622 47.4509 91.8398 47.4509C91.6174 47.4509 91.4372 47.6314 91.4372 47.8538V54.2776C91.4372 54.6951 91.7764 55.0344 92.1939 55.0344L109.484 55.0867V54.9612C109.669 55.0594 109.877 55.1113 110.087 55.1125H111.077C111.472 55.1088 111.844 54.9299 112.093 54.6243C112.344 54.93 112.718 55.1088 113.115 55.1125H114.36C115.142 55.1125 115.779 54.3994 115.779 53.5159V50.3201C115.779 50.0977 115.598 49.9172 115.376 49.9172C115.154 49.9172 114.974 50.0977 114.974 50.3201V53.5173H114.985Z" fill="black"/>
<path d="M125.63 55.053C125.851 55.053 126.031 54.874 126.032 54.6516V48.4724C126.032 48.25 125.852 48.0701 125.63 48.0701C125.407 48.0701 125.227 48.25 125.227 48.4724V54.6506C125.227 54.8718 125.407 55.0517 125.63 55.053Z" fill="black"/>
<path d="M117.195 55.0876H122.404C122.91 55.0876 123.321 54.6777 123.321 54.1707V48.3918C123.321 48.1706 123.141 47.9903 122.919 47.989C122.697 47.989 122.517 48.1694 122.516 48.3918V54.2878H117.195C116.973 54.2878 116.793 54.4678 116.793 54.6902C116.793 54.9126 116.973 55.093 117.195 55.093" fill="black"/>
<path d="M119.111 59.1672H118.414C117.474 59.1684 116.712 59.9312 116.709 60.8718V63.2639C116.709 64.2045 117.472 64.9672 118.414 64.9685H118.712C118.935 64.9685 119.115 64.7886 119.115 64.5662C119.115 64.3438 118.935 64.1633 118.712 64.1633H118.414C117.917 64.1633 117.515 63.762 117.515 63.2649V60.8708C117.515 60.3738 117.916 59.9709 118.413 59.9709H119.111C119.608 59.9709 120.011 60.3721 120.012 60.8679V66.282C120.012 66.5044 120.192 66.6843 120.415 66.6843C120.637 66.6843 120.817 66.5044 120.817 66.282V60.8708C120.817 59.9302 120.055 59.1671 119.113 59.1658" fill="black"/>
<path d="M123.912 59.2839H122.42C122.088 59.2827 121.819 59.5498 121.818 59.8816V61.6438C121.818 61.8662 121.998 62.0461 122.22 62.0461C122.443 62.0461 122.623 61.8662 122.623 61.6438V60.0906H123.913C124.623 60.0918 125.2 60.668 125.201 61.3787V64.0178H122C121.778 64.0178 121.598 64.1983 121.598 64.4207C121.598 64.6431 121.778 64.8235 122 64.8235H125.124C125.611 64.8235 126.006 64.4283 126.006 63.9412V61.3792C126.005 60.2236 125.068 59.2866 123.913 59.2854" fill="black"/>
<path d="M120.107 48.4304V47.322H119.25C118.778 47.322 118.396 47.7059 118.394 48.178V48.8176H117.871V49.238H118.914V53.1926C118.914 53.415 119.094 53.5955 119.316 53.5955C119.539 53.5955 119.719 53.415 119.719 53.1926V49.239H120.373V48.8191H118.824V48.179C118.823 47.9404 119.015 47.7466 119.253 47.7454H119.695V48.4338H120.115L120.109 48.4304H120.107Z" fill="black"/>
<path d="M103.469 67.3083V66.6721C103.469 66.4323 103.663 66.2385 103.902 66.2385H104.335V66.7146C104.335 66.8314 104.429 66.927 104.547 66.927C104.663 66.927 104.756 66.8326 104.755 66.717V65.8201H103.902C103.43 65.8201 103.048 66.2039 103.046 66.676V67.3123H102.731C102.614 67.316 102.522 67.4142 102.526 67.531C102.529 67.6428 102.619 67.7324 102.731 67.7361H104.807C104.924 67.7324 105.016 67.6341 105.012 67.5173C105.008 67.4055 104.919 67.316 104.807 67.3123H103.47V67.3083H103.469Z" fill="black"/>
<path d="M94.8729 64.0168V61.3777C94.8741 60.667 95.4507 60.0903 96.1614 60.0891H97.4549V61.6423C97.4549 61.8647 97.6351 62.0452 97.8575 62.0452C98.0799 62.0452 98.2601 61.8647 98.2601 61.6423V59.2854H96.1664C95.0108 59.2866 94.0739 60.2236 94.0727 61.3792V64.0183H91.6584V57.3694C91.6584 57.147 91.4782 56.9666 91.2558 56.9666C91.0334 56.9666 90.8532 57.147 90.8532 57.3694V64.1052C90.8532 64.5003 91.1725 64.8223 91.5677 64.8235H98.5496C98.772 64.8235 98.9522 64.6431 98.9522 64.4207C98.9522 64.1983 98.772 64.0183 98.5496 64.0183H94.8729V64.0168Z" fill="black"/>
<path d="M87.8475 58.7346H87.1467C86.2061 58.7358 85.4444 59.4991 85.4419 60.4397V62.0276C85.4431 62.9682 86.2061 63.7297 87.1467 63.7322H87.9084C88.1308 63.7322 88.311 63.5522 88.311 63.3298C88.311 63.1074 88.1308 62.927 87.9084 62.927H87.1467C86.6484 62.9258 86.2458 62.521 86.2471 62.0227V60.4343C86.2471 59.9373 86.6509 59.5361 87.1467 59.5349H87.8475C88.3445 59.5349 88.7471 59.9362 88.7471 60.4333V64.0081H82.886V59.3323C82.886 59.1236 82.7183 58.9536 82.5095 58.9524H82.461C82.2523 58.9524 82.082 59.1201 82.0808 59.3289V59.8132C81.8012 59.6268 81.4732 59.5276 81.1377 59.5276H80.796C79.8554 59.5288 79.0937 60.2916 79.0912 61.2322V63.0876C79.0912 64.0282 79.8541 64.7909 80.796 64.7922H81.1377C81.4744 64.7922 81.8025 64.6916 82.0808 64.5027V64.8147H88.7471V65.0432C88.7471 65.2656 88.9273 65.446 89.1497 65.446C89.3721 65.446 89.5523 65.2656 89.5523 65.0432V60.4348C89.5511 59.4942 88.7881 58.7322 87.8475 58.7297M82.0385 63.0901C82.0385 63.5871 81.6372 63.9895 81.1401 63.9895H80.7972C80.3002 63.9895 79.8988 63.5859 79.8976 63.0901V61.2346C79.8976 60.7376 80.2989 60.3352 80.796 60.3352H81.1389C81.6359 60.3352 82.0385 60.7365 82.0385 61.2336V63.0901Z" fill="black"/>
<path d="M113.734 59.2849H113.625L114.228 58.5842C114.368 58.4127 114.344 58.1592 114.172 58.0188C114.006 57.8821 113.762 57.901 113.618 58.0613L111.814 60.1638C111.673 60.3353 111.698 60.5889 111.87 60.7293C112.036 60.866 112.28 60.8471 112.424 60.6868L112.969 60.0505V60.0891H113.731C114.442 60.0903 115.018 60.667 115.02 61.3777V64.0169H109.659V60.7586C109.659 60.5362 109.479 60.3562 109.257 60.3562C109.034 60.3562 108.854 60.5362 108.854 60.7586V64.1023C108.854 64.4974 109.173 64.8194 109.568 64.8206H115.083C115.489 64.8206 115.818 64.4925 115.818 64.0862V61.3762C115.817 60.2206 114.88 59.2837 113.725 59.2825" fill="black"/>
<path d="M81.2719 56.1218C82.0348 56.1218 82.7443 55.7279 83.1457 55.0793H89.2118C89.715 55.0805 90.1226 54.6739 90.1238 54.1707V50.074H84.8193C84.3285 50.074 83.8551 50.2483 83.4823 50.5676V49.9539C83.4823 49.7315 83.3021 49.551 83.0797 49.551C82.8573 49.551 82.6771 49.7315 82.6771 49.9539V53.8816C82.6833 54.6532 82.0732 55.2903 81.3016 55.3176C80.5225 55.3375 79.8764 54.7227 79.8565 53.9436V51.385C79.8565 51.1626 79.6763 50.9827 79.4539 50.9827C79.2315 50.9827 79.0513 51.1626 79.0513 51.385V53.9075C79.0538 55.1302 80.0441 56.1203 81.2668 56.1228M83.5569 52.1394C83.5569 51.4423 84.1223 50.8767 84.8193 50.8767H89.3186V54.2815H83.5569V52.1394Z" fill="black"/>
<path d="M106.744 57.2634L103.383 61.2136L100.169 57.199C100.022 57.0325 99.7685 57.015 99.602 57.1604C99.4454 57.2971 99.4193 57.5321 99.5424 57.6999L102.856 61.8313L100.996 64.0159H100.524C100.302 64.0159 100.121 64.1958 100.121 64.4182C100.121 64.6406 100.302 64.821 100.524 64.821H105.287V63.4802L103.906 61.8411L106.533 58.7561V65.0544C106.533 65.2768 106.713 65.4573 106.936 65.4573C107.158 65.4573 107.338 65.2768 107.338 65.0544V57.2883L106.75 57.2673L106.744 57.2634ZM104.481 63.7707V64.0168H102.046L103.374 62.4548L104.481 63.7693V63.7707Z" fill="black"/>
<path d="M111.35 65.4135C111.271 65.3352 111.144 65.3352 111.065 65.4135L110.55 65.933C110.472 66.0125 110.472 66.1391 110.55 66.2186L111.065 66.7382C111.144 66.8165 111.271 66.8165 111.35 66.7382L111.865 66.2186C111.943 66.1391 111.943 66.0125 111.865 65.933L111.35 65.4135Z" fill="black"/>
<path d="M112.285 65.9339L112.802 65.4173C112.881 65.3378 113.009 65.3378 113.089 65.4173L113.606 65.9339C113.685 66.0134 113.685 66.1415 113.606 66.221L113.089 66.7381C113.009 66.8176 112.881 66.8176 112.802 66.7381L112.285 66.221C112.205 66.1415 112.205 66.0134 112.285 65.9339Z" fill="black"/>
<path d="M80.3511 57.0038L79.8317 57.5184C79.7534 57.5979 79.7534 57.7246 79.8317 57.8041L80.3511 58.3236C80.4306 58.4019 80.5574 58.4019 80.6369 58.3236L81.1563 57.8041C81.2346 57.7246 81.2346 57.5979 81.1563 57.5184L80.6369 57.0038C80.5574 56.9255 80.4306 56.9255 80.3511 57.0038Z" fill="black"/>
<path d="M82.0895 57.0038L81.5751 57.5184C81.4968 57.593 81.4931 57.717 81.5664 57.7953C81.5689 57.7978 81.5714 57.8016 81.5751 57.8041L82.0895 58.3236C82.169 58.4019 82.2958 58.4019 82.3753 58.3236L82.8947 57.8041C82.973 57.7246 82.973 57.5979 82.8947 57.5184L82.3753 57.0038C82.2958 56.9255 82.169 56.9255 82.0895 57.0038Z" fill="black"/>
<path d="M86.3552 57.0038L85.8408 57.5184C85.7625 57.5979 85.7625 57.7246 85.8408 57.8041L86.3552 58.3236C86.4347 58.4019 86.5615 58.4019 86.641 58.3236L87.1604 57.8041C87.2387 57.7246 87.2387 57.5979 87.1604 57.5184L86.641 57.0038C86.5615 56.9255 86.4347 56.9255 86.3552 57.0038Z" fill="black"/>
<path d="M88.0935 57.0038L87.5791 57.5184C87.5008 57.5979 87.5008 57.7246 87.5791 57.8041L88.0935 58.3222C88.173 58.4005 88.2998 58.4005 88.3793 58.3222L88.8987 57.8031C88.977 57.7236 88.977 57.5965 88.8987 57.517L88.3793 57.0028C88.2998 56.9245 88.173 56.9255 88.0935 57.0038Z" fill="black"/>
<path d="M122.784 57.5233C122.706 57.6028 122.706 57.7295 122.784 57.809L123.299 58.3285C123.378 58.4068 123.505 58.4068 123.584 58.3285L124.104 57.809C124.182 57.7295 124.182 57.6028 124.104 57.5233L123.584 57.0092C123.505 56.9309 123.378 56.9309 123.299 57.0092L122.784 57.5233Z" fill="black"/>
<path d="M110.343 48.0712L109.828 48.5907C109.75 48.6702 109.75 48.7969 109.828 48.8764L110.343 49.3959C110.422 49.4742 110.549 49.4742 110.628 49.3959L111.148 48.8764C111.226 48.7969 111.226 48.6702 111.148 48.5907L110.628 48.0712C110.549 47.9929 110.422 47.9929 110.343 48.0712Z" fill="black"/>
<path d="M97.1915 47.9247L96.6721 48.4389C96.5938 48.5184 96.5938 48.6455 96.6721 48.725L97.1915 49.2445C97.271 49.3228 97.3978 49.3228 97.4773 49.2445L97.9967 48.725C98.075 48.6455 98.075 48.5184 97.9967 48.4389L97.4773 47.9247C97.3978 47.8464 97.271 47.8464 97.1915 47.9247Z" fill="black"/>
<path d="M111.567 48.8764L112.081 49.391C112.161 49.4693 112.287 49.4693 112.367 49.391L112.886 48.8764C112.965 48.7969 112.965 48.6702 112.886 48.5907L112.367 48.0712C112.287 47.9929 112.161 47.9929 112.081 48.0712L111.567 48.5907C111.488 48.6702 111.488 48.7969 111.567 48.8764Z" fill="black"/>
<path d="M81.2383 38.0736L80.7189 37.5541C80.6394 37.4758 80.5126 37.4758 80.4331 37.5541L79.9137 38.0736C79.8354 38.1531 79.8354 38.2798 79.9137 38.3593L80.4331 38.8788C80.5126 38.9571 80.6394 38.9571 80.7189 38.8788L81.2383 38.3593C81.3166 38.2798 81.3166 38.1531 81.2383 38.0736Z" fill="black"/>
<path d="M82.9767 38.0736L82.4573 37.5541C82.3778 37.4758 82.251 37.4758 82.1715 37.5541L81.6521 38.0736C81.5738 38.1531 81.5738 38.2798 81.6521 38.3593L82.1715 38.8788C82.251 38.9571 82.3778 38.9571 82.4573 38.8788L82.9767 38.3593C83.055 38.2798 83.055 38.1531 82.9767 38.0736Z" fill="black"/>
<path d="M105.151 38.0736L104.632 37.5541C104.552 37.4758 104.426 37.4758 104.346 37.5541L103.827 38.0736C103.748 38.1531 103.748 38.2798 103.827 38.3593L104.346 38.8788C104.426 38.9571 104.552 38.9571 104.632 38.8788L105.151 38.3593C105.23 38.2798 105.23 38.1531 105.151 38.0736Z" fill="black"/>
<path d="M106.891 38.0736L106.371 37.5541C106.292 37.4758 106.165 37.4758 106.086 37.5541L105.566 38.0736C105.488 38.1531 105.488 38.2798 105.566 38.3593L106.086 38.8788C106.165 38.9571 106.292 38.9571 106.371 38.8788L106.891 38.3593C106.969 38.2798 106.969 38.1531 106.891 38.0736Z" fill="black"/>
<path d="M124.432 39.4578H123.273C122.539 39.459 121.902 39.9584 121.724 40.6692C120.848 40.7512 120.177 41.4858 120.176 42.3655V43.4167C120.176 43.736 120.269 44.0478 120.44 44.3162H116.836C116.963 44.0714 117.028 43.7993 117.026 43.5247V40.7825C117.026 40.5688 116.855 40.3933 116.64 40.3933H116.615C116.401 40.3933 116.226 40.5663 116.226 40.78V43.5256C116.226 43.963 115.949 44.3171 115.607 44.3171H114.617C114.279 44.3171 114.003 43.963 114.003 43.5256V41.4446C114.003 41.2309 113.832 41.0554 113.617 41.0554H113.592C113.378 41.0554 113.203 41.2284 113.203 41.4421V43.5271C113.203 43.8029 113.268 44.0738 113.393 44.3186H107.548C107.206 44.3186 106.934 43.9645 106.934 43.5271V39.6169C106.934 39.3945 106.754 39.2141 106.532 39.2141C106.309 39.2141 106.129 39.3945 106.129 39.6169V40.1189C105.859 39.9499 105.548 39.8591 105.229 39.8591H104.883C103.942 39.8603 103.18 40.6231 103.178 41.5637V43.4192C103.179 44.3598 103.942 45.1213 104.883 45.1238H105.229C105.705 45.1238 106.158 44.9237 106.479 44.5745C106.729 44.915 107.126 45.1188 107.548 45.1238H115.616C116.041 45.1163 116.437 44.9113 116.688 44.5696C116.688 44.8753 116.937 45.1238 117.242 45.1238H124.446C125.327 45.1238 126.041 44.4105 126.042 43.5295V41.0583C126.042 40.1773 125.329 39.463 124.448 39.4617H124.446M105.23 44.3235H104.883C104.386 44.3235 103.983 43.9221 103.983 43.425V41.5676C103.983 41.0706 104.385 40.6677 104.882 40.6677H105.23C105.727 40.6677 106.129 41.0691 106.129 41.5662V43.4241C106.129 43.9211 105.728 44.3235 105.231 44.3235H105.23ZM122.147 44.3235H121.896C121.399 44.3235 120.996 43.9221 120.996 43.425V42.3728C120.996 41.8758 121.398 41.4734 121.895 41.4734H122.243C122.74 41.4734 123.142 41.8742 123.142 42.3713V43.4241C123.142 43.9211 122.741 44.3235 122.244 44.3235H122.147ZM125.24 43.532C125.237 43.9681 124.884 44.3223 124.448 44.3235H123.686C123.857 44.0539 123.946 43.7422 123.946 43.4241V42.3728C123.944 41.5639 123.376 40.8682 122.583 40.7029C122.717 40.437 122.991 40.2693 123.287 40.2693H124.447C124.884 40.2693 125.239 40.6258 125.238 41.0632V43.532H125.24Z" fill="black"/>
<path d="M100.826 45.2209V40.2903C100.826 40.0766 100.654 39.9016 100.44 39.9016H100.41C100.196 39.9016 100.022 40.0741 100.021 40.2878V45.2219C100.023 45.5636 99.9202 45.8967 99.7263 46.1775C99.6207 46.3254 99.6281 46.5254 99.7437 46.6658L99.7611 46.6833C99.9015 46.8461 100.148 46.8644 100.312 46.7253C100.333 46.7079 100.351 46.6881 100.367 46.6658C100.669 46.2471 100.83 45.7427 100.826 45.2258" fill="black"/>
<path d="M98.598 44.3201H94.8952V41.989C94.8952 41.2758 95.4742 40.699 96.1875 40.699H96.2148C96.9206 40.7251 97.4785 41.3077 97.4735 42.0134V42.2507C97.4735 42.4731 97.6537 42.6536 97.8761 42.6536C98.0985 42.6536 98.2787 42.4731 98.2787 42.2507V41.9915C98.27 40.8347 97.3257 39.9037 96.1701 39.9124C95.0133 39.9211 94.0826 40.8656 94.0913 42.0212V44.3186H92.5294V38.0286C92.5294 37.8149 92.3579 37.6399 92.143 37.6399H92.1132C91.8995 37.6399 91.7243 37.8112 91.7243 38.0261V44.5583C91.7243 44.8689 91.9753 45.1213 92.2859 45.1213H98.5943C98.8167 45.1213 98.9969 44.9409 98.9969 44.7185C98.9969 44.4961 98.8167 44.3162 98.5943 44.3162" fill="black"/>
<path d="M80.7922 45.1213H81.1389C81.6148 45.1213 82.0671 44.9212 82.3889 44.572C82.6411 44.9125 83.0375 45.1151 83.4612 45.1213H89.8678C90.2083 45.125 90.4878 44.852 90.4903 44.5115V40.2888C90.4903 40.0751 90.3188 39.9001 90.1039 39.9001H90.0741C89.8604 39.9001 89.6852 40.0715 89.6852 40.2864V44.3171H83.4613C83.1196 44.3171 82.8425 43.963 82.8425 43.5256V39.7014C82.8425 39.479 82.6623 39.2986 82.4399 39.2986C82.2175 39.2986 82.0373 39.479 82.0373 39.7014V40.1165C81.7677 39.9463 81.4558 39.8567 81.1377 39.8567H80.791C79.8504 39.8567 79.0875 40.6194 79.0862 41.5613V43.4163C79.0874 44.3569 79.8504 45.1188 80.791 45.1213M79.8914 41.5613C79.8914 41.0643 80.2927 40.6619 80.7898 40.6619H81.1377C81.6347 40.6619 82.0373 41.0632 82.0373 41.5603V43.4177C82.0373 43.9147 81.636 44.3171 81.1389 44.3171H80.791C80.294 44.3171 79.8914 43.9163 79.8914 43.4192V41.5613Z" fill="black"/>
<path d="M110.425 41.1326H111.186C111.303 41.1289 111.395 41.0306 111.391 40.9138C111.388 40.802 111.298 40.7129 111.186 40.7092H109.849V39.637H110.719V40.1125C110.719 40.2281 110.811 40.3225 110.927 40.325C111.043 40.3238 111.137 40.2293 111.139 40.1125V39.2166H109.682C109.544 39.2166 109.431 39.3283 109.431 39.4675V40.7092H109.119C109.002 40.7055 108.904 40.797 108.9 40.9138C108.896 41.0306 108.988 41.1289 109.105 41.1326H110.425Z" fill="black"/>
<path d="M114.711 46.9457L115.226 46.431C115.304 46.3515 115.304 46.2249 115.226 46.1454L114.711 45.6259C114.632 45.5476 114.505 45.5476 114.426 45.6259L113.911 46.1454C113.833 46.2249 113.833 46.3515 113.911 46.431L114.426 46.9457C114.505 47.024 114.632 47.024 114.711 46.9457Z" fill="black"/>
<path d="M116.446 45.6273C116.367 45.549 116.24 45.549 116.16 45.6273L115.646 46.1415C115.568 46.221 115.568 46.3481 115.646 46.4276L116.16 46.9467C116.24 47.025 116.367 47.025 116.446 46.9467L116.966 46.4276C117.044 46.3481 117.044 46.221 116.966 46.1415L116.446 45.6273Z" fill="black"/>
<path d="M85.2828 45.6273L84.7634 46.1415C84.6851 46.221 84.6851 46.3481 84.7634 46.4276L85.2828 46.9467C85.3623 47.025 85.4891 47.025 85.5686 46.9467L86.083 46.4276C86.1613 46.3481 86.1613 46.221 86.083 46.1415L85.5686 45.6273C85.4891 45.549 85.3623 45.549 85.2828 45.6273Z" fill="black"/>
<path d="M87.0212 45.6273L86.5068 46.1415C86.4285 46.221 86.4285 46.3481 86.5068 46.4276L87.0212 46.9467C87.1007 47.025 87.2275 47.025 87.307 46.9467L87.8264 46.4276C87.9047 46.3481 87.9047 46.221 87.8264 46.1415L87.307 45.6273C87.2275 45.549 87.1007 45.549 87.0212 45.6273Z" fill="black"/>
<path d="M111.463 46.8388C111.384 46.7605 111.257 46.7605 111.178 46.8388L110.663 47.3529C110.585 47.4324 110.585 47.5595 110.663 47.639L111.178 48.1581C111.257 48.2364 111.384 48.2364 111.463 48.1581L111.983 47.639C112.061 47.5595 112.061 47.4324 111.983 47.3529L111.463 46.8388Z" fill="black"/>
<path d="M95.3189 22.8892C95.0294 22.6643 94.6256 22.6606 94.3323 22.8805L78.5556 34.6427C78.189 34.9011 78.1008 35.4082 78.3605 35.776C78.6202 36.1438 79.1259 36.2305 79.4937 35.9708C79.5061 35.9621 79.5186 35.9538 79.5297 35.9439L94.0042 25.151V34.317C93.9967 34.7656 94.3546 35.1372 94.8032 35.1446C95.2518 35.152 95.6233 34.7944 95.6307 34.3458V23.5494C95.6332 23.2922 95.5164 23.0471 95.3151 22.8868" fill="black"/>
<path d="M106.921 22.6786H98.2774C97.8288 22.6711 97.4573 23.0288 97.4499 23.4774C97.4425 23.926 97.8003 24.2976 98.2489 24.305H99.5971V34.2938C99.6046 34.7424 99.9748 35.1 100.425 35.0926C100.863 35.0851 101.216 34.7312 101.224 34.2938V31.3739H106.968C109.368 31.3826 111.322 29.4415 111.33 27.0409C111.339 24.6403 109.398 22.6873 106.998 22.6786H106.919M106.968 29.7474H101.224V24.3099H106.968C108.47 24.3099 109.689 25.5276 109.689 27.0311C109.689 28.5346 108.471 29.7523 106.968 29.7523" fill="black"/>
<path d="M124.172 24.3136C122.961 23.2388 121.391 22.6571 119.772 22.6832H112.397C111.948 22.6907 111.59 23.0611 111.598 23.5109C111.605 23.9495 111.959 24.3022 112.397 24.3097H113.755V34.2901C113.755 34.7411 114.121 35.1063 114.572 35.1075H119.767C121.386 35.1311 122.955 34.5495 124.167 33.4772C126.697 31.1586 126.87 27.2286 124.551 24.6988C124.429 24.5658 124.301 24.4381 124.167 24.3151M119.966 33.4811H115.372V24.3097H119.966C122.498 24.3097 124.551 26.3623 124.551 28.8946C124.551 31.4269 122.498 33.4796 119.966 33.4796" fill="black"/>
<path d="M37.7788 48.9783C34.6687 48.3943 29.4686 47.805 23.8672 52.7976C23.4286 52.4273 23.0173 52.0273 22.6346 51.5999C20.4763 49.1334 18.9952 44.7525 18.9952 40.9627C18.9927 31.0695 27.0097 23.0472 36.9029 23.0447H36.9141C40.0068 23.0447 43.3729 23.8325 46.1885 24.8924C46.2444 24.7495 46.3786 24.3087 46.4308 24.1658C43.5195 22.5828 38.4362 21.5003 34.5694 21.678C22.8285 21.6146 13.441 30.7188 13.441 42.0882C13.441 47.3405 15.7472 52.1155 18.9865 55.7537C20.3632 57.2796 21.9413 58.6103 23.6759 59.7112C24.7358 58.2139 26.3834 56.7738 27.5179 55.8133C29.7669 54.152 32.2023 53.0102 35.6156 52.7903C39.086 52.5269 42.9566 53.5383 44.9596 54.9275C45.1112 54.7461 45.6132 53.777 45.7598 53.5906C45.0155 52.7817 42.9641 50.3415 37.7826 48.971" fill="black"/>
<path d="M41.7065 39.8865C41.709 44.0789 38.3118 47.4794 34.1182 47.4807C29.9258 47.4832 26.525 44.0864 26.5237 39.8928C26.5212 35.7004 29.9184 32.2994 34.112 32.2981H34.1157C38.3068 32.2981 41.704 35.6953 41.7065 39.8865Z" fill="black"/>
<path d="M15.2104 13.9631C15.0961 15.6318 15.5893 17.2841 16.5995 18.6174C17.6681 20.0973 19.6139 21.1573 20.311 21.5984L21.0901 21.0359C21.0727 20.473 20.9037 18.1279 19.6015 16.325C18.4124 14.6774 15.8726 13.4836 15.8726 13.4836L15.2104 13.9631Z" fill="black"/>
<path d="M2.9165 48.8754C4.3343 49.6781 5.99432 49.9426 7.59222 49.6195C9.34422 49.3039 11.0925 48.0403 11.7759 47.6166L11.6119 46.6957C11.1149 46.4758 8.97768 45.6321 6.84418 46.016C4.89708 46.3664 2.77728 48.0888 2.77728 48.0888L2.91522 48.8715V48.8754H2.9165Z" fill="black"/>
<path d="M56.0555 13.9631C56.1698 15.6318 55.6765 17.2841 54.6663 18.6174C53.5977 20.0973 51.6506 21.1573 50.9548 21.5984L50.172 21.0359C50.1894 20.473 50.3621 18.1279 51.6606 16.325C52.8497 14.6774 55.3895 13.4836 55.3895 13.4836L56.0555 13.9631Z" fill="black"/>
<path d="M68.3493 48.8754C66.9328 49.6781 65.274 49.9426 63.6773 49.6195C61.9253 49.3039 60.177 48.0403 59.4936 47.6166L59.6576 46.6957C60.1546 46.4758 62.2918 45.6321 64.4253 46.016C66.3774 46.3664 68.4922 48.0888 68.4922 48.0888L68.3493 48.8715V48.8754Z" fill="black"/>
<path d="M34.9023 0.866455C34.9023 0.866455 33.2149 4.14942 33.4187 9.15942C33.5007 12.4385 34.6078 16.0033 34.9669 17.3738L35.9833 17.3479C36.2952 16.5042 37.5104 12.8661 37.406 8.87378C37.3153 5.22318 35.7584 0.849365 35.7584 0.849365L34.8936 0.870361L34.9023 0.866455Z" fill="black"/>
<path d="M0.203979 27.2097C0.203979 27.2097 1.84293 30.0094 5.60663 31.6135C8.05073 32.7169 11.1608 32.9332 12.3288 33.0798L12.7749 32.093C12.299 31.4904 10.1879 29.018 7.21198 27.676C4.49078 26.4521 0.580505 26.365 0.580505 26.365L0.203979 27.2039V27.2097Z" fill="black"/>
<path d="M71.0668 27.2097C71.0668 27.2097 69.4279 30.0094 65.6642 31.6135C63.2201 32.7169 60.105 32.9332 58.942 33.0798L58.4959 32.093C58.9718 31.4904 61.0829 29.018 64.0588 27.676C66.78 26.4521 70.6866 26.365 70.6866 26.365L71.0631 27.2039L71.0668 27.2097Z" fill="black"/>
<path d="M35.0539 63.9946C35.0539 63.9946 40.8293 63.4318 46.3052 60.9877C48.6847 59.9974 50.7225 58.3485 52.2707 56.978C57.9156 52.0115 57.6298 45.964 57.6646 44.7836C57.6522 43.0589 57.3664 41.3477 56.8172 39.7138C55.1037 34.346 50.2975 30.3612 45.6181 28.4116C44.6787 28.0227 43.6847 27.6203 42.7627 27.3432C40.3198 26.6051 37.7788 26.2387 35.2266 26.2573C35.2303 26.4822 35.2701 26.9664 35.2825 27.1913C40.9361 27.4945 45.6951 30.1289 48.9307 35.2333C50.6181 37.8936 51.504 41.1253 51.3276 44.9101C51.1288 47.0647 50.7908 48.864 49.839 50.9018C47.0743 57.0711 40.8926 61.6127 25.7658 63.2392V66.6996L38.8685 67.0761L29.896 70.4794C30.8863 73.6715 34.563 74.8917 36.7437 74.9526C39.8327 75.0433 42.5762 73.2006 43.6436 70.8037L36.0044 70.5004L46.2915 66.7246V63.8569L35.0489 63.9912L35.0526 63.9946H35.0539Z" fill="black"/>
</svg>
