<svg width="161" height="49" viewBox="0 0 161 49" fill="none" xmlns="http://www.w3.org/2000/svg">
<path d="M2.362 26.3108C2.362 24.9534 2.86371 24.0974 4.07361 24.0974C5.28351 24.0974 5.78522 24.9534 5.78522 26.3108C5.78522 27.8158 5.28351 28.4646 4.07361 28.4646C2.86371 28.4351 2.362 27.7863 2.362 26.3108ZM1.00458 26.3108C1.00458 28.7306 2.15549 29.7336 4.01459 29.7336C5.87369 29.7336 7.0246 28.7306 7.0246 26.3108C7.0246 23.891 5.87369 22.8875 4.01459 22.8875C2.15549 22.8875 1.00458 23.8615 1.00458 26.3108ZM2.5686 20.2317C2.5096 20.2317 2.42108 20.2317 2.42108 20.3792V21.53C2.42108 21.589 2.4211 21.6775 2.5686 21.6775H3.63098C3.68998 21.6775 3.7785 21.6775 3.7785 21.53V20.3792C3.7785 20.3202 3.77848 20.2317 3.63098 20.2317H2.5686ZM4.51617 20.2317C4.45717 20.2317 4.36871 20.2317 4.36871 20.3792V21.53C4.36871 21.589 4.36867 21.6775 4.51617 21.6775H5.57861C5.63761 21.6775 5.72607 21.6775 5.72607 21.53V20.3792C5.72607 20.3202 5.72611 20.2317 5.57861 20.2317H4.51617Z" fill="black"/>
<mask id="mask0_1_2637" style="mask-type:luminance" maskUnits="userSpaceOnUse" x="1" y="20" width="7" height="10">
<path d="M2.362 26.3108C2.362 24.9534 2.86371 24.0974 4.07361 24.0974C5.28351 24.0974 5.78522 24.9534 5.78522 26.3108C5.78522 27.8158 5.28351 28.4646 4.07361 28.4646C2.86371 28.4351 2.362 27.7863 2.362 26.3108ZM1.00458 26.3108C1.00458 28.7306 2.15549 29.7336 4.01459 29.7336C5.87369 29.7336 7.0246 28.7306 7.0246 26.3108C7.0246 23.891 5.87369 22.8875 4.01459 22.8875C2.15549 22.8875 1.00458 23.8615 1.00458 26.3108ZM2.5686 20.2317C2.5096 20.2317 2.42108 20.2317 2.42108 20.3792V21.53C2.42108 21.589 2.4211 21.6775 2.5686 21.6775H3.63098C3.68998 21.6775 3.7785 21.6775 3.7785 21.53V20.3792C3.7785 20.3202 3.77848 20.2317 3.63098 20.2317H2.5686ZM4.51617 20.2317C4.45717 20.2317 4.36871 20.2317 4.36871 20.3792V21.53C4.36871 21.589 4.36867 21.6775 4.51617 21.6775H5.57861C5.63761 21.6775 5.72607 21.6775 5.72607 21.53V20.3792C5.72607 20.3202 5.72611 20.2317 5.57861 20.2317H4.51617Z" fill="white"/>
</mask>
<g mask="url(#mask0_1_2637)">
<path d="M6.99512 20.2317H1.00458V29.7043H6.99512V20.2317Z" fill="black"/>
</g>
<path d="M9.85748 23.2415C9.79848 23.2415 9.71002 23.2414 9.71002 23.3889V30.176C9.71002 31.0908 9.2969 31.5334 8.4411 31.5334H8.08698C8.02798 31.5334 7.93951 31.5339 7.93951 31.6814V32.5959C7.93951 32.6549 7.93948 32.7434 8.08698 32.7434H8.38208C10.0937 32.7434 10.9494 31.8876 10.9494 30.176V29.1726C11.3035 29.5267 11.7462 29.6746 12.2183 29.6746H12.5724C13.0741 29.6746 13.2216 29.6153 13.2216 29.0251C13.2216 28.5825 13.015 28.4646 12.5724 28.4646H12.4249C11.5101 28.4646 11.0084 28.1103 11.0084 27.4021V23.4182C11.0084 23.3592 11.0084 23.2708 10.8609 23.2708H9.8576L9.85748 23.2415Z" fill="black"/>
<mask id="mask1_1_2637" style="mask-type:luminance" maskUnits="userSpaceOnUse" x="7" y="23" width="7" height="10">
<path d="M9.85748 23.2415C9.79848 23.2415 9.71002 23.2414 9.71002 23.3889V30.176C9.71002 31.0908 9.2969 31.5334 8.4411 31.5334H8.08698C8.02798 31.5334 7.93951 31.5339 7.93951 31.6814V32.5959C7.93951 32.6549 7.93948 32.7434 8.08698 32.7434H8.38208C10.0937 32.7434 10.9494 31.8876 10.9494 30.176V29.1726C11.3035 29.5267 11.7462 29.6746 12.2183 29.6746H12.5724C13.0741 29.6746 13.2216 29.6153 13.2216 29.0251C13.2216 28.5825 13.015 28.4646 12.5724 28.4646H12.4249C11.5101 28.4646 11.0084 28.1103 11.0084 27.4021V23.4182C11.0084 23.3592 11.0084 23.2708 10.8609 23.2708H9.8576L9.85748 23.2415Z" fill="white"/>
</mask>
<g mask="url(#mask1_1_2637)">
<path d="M13.2216 23.2415H7.93939V32.7141H13.2216V23.2415Z" fill="black"/>
</g>
<path d="M12.6314 28.3762C12.1888 28.3762 12.1297 28.5234 12.1297 29.0251C12.1297 29.4677 12.1887 29.5862 12.6314 29.5862H14.343C14.8447 29.5862 14.9922 29.4385 14.9922 28.9368C14.9922 28.5237 14.7856 28.3762 14.343 28.3762H12.6314Z" fill="black"/>
<mask id="mask2_1_2637" style="mask-type:luminance" maskUnits="userSpaceOnUse" x="12" y="28" width="3" height="2">
<path d="M12.6314 28.3762C12.1888 28.3762 12.1297 28.5234 12.1297 29.0251C12.1297 29.4677 12.1887 29.5862 12.6314 29.5862H14.343C14.8447 29.5862 14.9922 29.4385 14.9922 28.9368C14.9922 28.5237 14.7856 28.3762 14.343 28.3762H12.6314Z" fill="white"/>
</mask>
<g mask="url(#mask2_1_2637)">
<path d="M14.9922 28.3762H12.1298V29.5862H14.9922V28.3762Z" fill="black"/>
</g>
<path d="M14.343 28.3762C13.9004 28.3762 13.8413 28.5234 13.8413 29.0251C13.8413 29.4677 13.9003 29.5862 14.343 29.5862H16.0546C16.5563 29.5862 16.7038 29.4385 16.7038 28.9368C16.7038 28.5237 16.4972 28.3762 16.0546 28.3762H14.343Z" fill="black"/>
<mask id="mask3_1_2637" style="mask-type:luminance" maskUnits="userSpaceOnUse" x="13" y="28" width="4" height="2">
<path d="M14.343 28.3762C13.9004 28.3762 13.8413 28.5234 13.8413 29.0251C13.8413 29.4677 13.9003 29.5862 14.343 29.5862H16.0546C16.5563 29.5862 16.7038 29.4385 16.7038 28.9368C16.7038 28.5237 16.4972 28.3762 16.0546 28.3762H14.343Z" fill="white"/>
</mask>
<g mask="url(#mask3_1_2637)">
<path d="M16.7037 28.3762H13.8413V29.5862H16.7037V28.3762Z" fill="black"/>
</g>
<path d="M16.1431 28.3762C15.73 28.3762 15.6414 28.5234 15.6414 29.0251C15.6414 29.4677 15.7004 29.5862 16.1431 29.5862H17.8547C18.3564 29.5862 18.5039 29.4385 18.5039 28.9368C18.5039 28.5237 18.2973 28.3762 17.8547 28.3762H16.1431Z" fill="black"/>
<mask id="mask4_1_2637" style="mask-type:luminance" maskUnits="userSpaceOnUse" x="15" y="28" width="4" height="2">
<path d="M16.1431 28.3762C15.73 28.3762 15.6414 28.5234 15.6414 29.0251C15.6414 29.4677 15.7004 29.5862 16.1431 29.5862H17.8547C18.3564 29.5862 18.5039 29.4385 18.5039 28.9368C18.5039 28.5237 18.2973 28.3762 17.8547 28.3762H16.1431Z" fill="white"/>
</mask>
<g mask="url(#mask4_1_2637)">
<path d="M18.5038 28.3762H15.6414V29.5862H18.5038V28.3762Z" fill="black"/>
</g>
<path d="M20.9237 26.3108C20.9237 24.9534 21.4254 24.1564 22.6353 24.0974C23.8452 24.0974 24.3469 24.9534 24.3469 26.3108C24.3469 27.8158 23.8452 28.4646 22.6353 28.4646C21.3959 28.4351 20.9237 27.7863 20.9237 26.3108ZM19.6252 26.3694V27.0188C19.6252 28.0811 19.1235 28.4353 18.6219 28.4353H17.8251C17.3234 28.4353 17.1759 28.4941 17.1759 28.9958C17.1759 29.4384 17.3825 29.6453 17.8251 29.6453H18.5333C19.094 29.6453 19.8907 29.5862 20.3039 28.8484C20.8056 29.4091 21.6023 29.7039 22.6647 29.7629C23.5795 29.7629 24.3763 29.4682 24.8779 28.9075C25.3205 29.5567 26.0879 29.6155 26.6486 29.6155H27.0026C27.5043 29.6155 27.6519 29.5568 27.6519 28.9666C27.6519 28.524 27.4452 28.4055 27.0026 28.4055H26.5009C25.9992 28.4055 25.4976 28.1104 25.4976 27.0481C25.5566 26.8415 25.5566 26.5466 25.5566 26.3401C25.5566 23.9203 24.4942 22.9167 22.5466 22.9167C20.776 22.9462 19.6252 23.9495 19.6252 26.3694Z" fill="black"/>
<mask id="mask5_1_2637" style="mask-type:luminance" maskUnits="userSpaceOnUse" x="17" y="22" width="11" height="8">
<path d="M20.9237 26.3108C20.9237 24.9534 21.4254 24.1564 22.6353 24.0974C23.8452 24.0974 24.3469 24.9534 24.3469 26.3108C24.3469 27.8158 23.8452 28.4646 22.6353 28.4646C21.3959 28.4351 20.9237 27.7863 20.9237 26.3108ZM19.6252 26.3694V27.0188C19.6252 28.0811 19.1235 28.4353 18.6219 28.4353H17.8251C17.3234 28.4353 17.1759 28.4941 17.1759 28.9958C17.1759 29.4384 17.3825 29.6453 17.8251 29.6453H18.5333C19.094 29.6453 19.8907 29.5862 20.3039 28.8484C20.8056 29.4091 21.6023 29.7039 22.6647 29.7629C23.5795 29.7629 24.3763 29.4682 24.8779 28.9075C25.3205 29.5567 26.0879 29.6155 26.6486 29.6155H27.0026C27.5043 29.6155 27.6519 29.5568 27.6519 28.9666C27.6519 28.524 27.4452 28.4055 27.0026 28.4055H26.5009C25.9992 28.4055 25.4976 28.1104 25.4976 27.0481C25.5566 26.8415 25.5566 26.5466 25.5566 26.3401C25.5566 23.9203 24.4942 22.9167 22.5466 22.9167C20.776 22.9462 19.6252 23.9495 19.6252 26.3694Z" fill="white"/>
</mask>
<g mask="url(#mask5_1_2637)">
<path d="M27.6814 22.9465H17.2054V29.7927H27.6814V22.9465Z" fill="black"/>
</g>
<path d="M29.2454 24.5988C29.452 24.3922 30.3078 24.1564 31.1635 24.0973C32.3144 24.0973 33.0815 24.3925 33.0815 25.4548C33.0815 26.5171 32.2258 27.3729 31.5176 27.8156C31.193 26.3106 30.3373 25.1594 29.2454 24.5988ZM31.3112 23.153C29.8947 23.153 28.7438 23.6544 28.2421 23.9494C28.1831 23.9494 28.0946 24.0972 28.0946 24.2448V25.1594C28.0946 25.2184 28.1535 25.3072 28.3011 25.4548C29.2159 26.163 30.0718 26.6645 30.4554 28.3761C29.8062 28.5236 29.393 28.5236 29.0979 28.5236H27.1207C26.619 28.5236 26.4716 28.5825 26.4716 29.0842C26.4716 29.5268 26.6781 29.7336 27.1207 29.7336H29.2749C29.9241 29.7336 30.6914 29.5858 31.4291 29.2316C31.9898 29.5857 32.698 29.7336 33.4358 29.7336H35.59C36.0917 29.7336 36.2393 29.5267 36.2393 29.0251C36.2393 28.5825 36.0326 28.4645 35.59 28.4645H33.2292C33.0226 28.4645 32.8751 28.4644 32.7275 28.4054C33.5243 27.9037 34.498 26.7532 34.498 25.3957C34.498 24.0382 33.6128 23.153 31.9308 23.153C31.7242 23.1235 31.5178 23.153 31.3112 23.153Z" fill="black"/>
<mask id="mask6_1_2637" style="mask-type:luminance" maskUnits="userSpaceOnUse" x="26" y="23" width="11" height="7">
<path d="M29.2454 24.5988C29.452 24.3922 30.3078 24.1564 31.1635 24.0973C32.3144 24.0973 33.0815 24.3925 33.0815 25.4548C33.0815 26.5171 32.2258 27.3729 31.5176 27.8156C31.193 26.3106 30.3373 25.1594 29.2454 24.5988ZM31.3112 23.153C29.8947 23.153 28.7438 23.6544 28.2421 23.9494C28.1831 23.9494 28.0946 24.0972 28.0946 24.2448V25.1594C28.0946 25.2184 28.1535 25.3072 28.3011 25.4548C29.2159 26.163 30.0718 26.6645 30.4554 28.3761C29.8062 28.5236 29.393 28.5236 29.0979 28.5236H27.1207C26.619 28.5236 26.4716 28.5825 26.4716 29.0842C26.4716 29.5268 26.6781 29.7336 27.1207 29.7336H29.2749C29.9241 29.7336 30.6914 29.5858 31.4291 29.2316C31.9898 29.5857 32.698 29.7336 33.4358 29.7336H35.59C36.0917 29.7336 36.2393 29.5267 36.2393 29.0251C36.2393 28.5825 36.0326 28.4645 35.59 28.4645H33.2292C33.0226 28.4645 32.8751 28.4644 32.7275 28.4054C33.5243 27.9037 34.498 26.7532 34.498 25.3957C34.498 24.0382 33.6128 23.153 31.9308 23.153C31.7242 23.1235 31.5178 23.153 31.3112 23.153Z" fill="white"/>
</mask>
<g mask="url(#mask6_1_2637)">
<path d="M36.1802 23.1233H26.4716V29.7043H36.1802V23.1233Z" fill="black"/>
</g>
<path d="M35.531 28.3762C35.1179 28.3762 35.0293 28.5234 35.0293 29.0251C35.0293 29.4677 35.0883 29.5862 35.531 29.5862H37.2426C37.7443 29.5862 37.8918 29.4385 37.8918 28.9368C37.8918 28.5237 37.6852 28.3762 37.2426 28.3762H35.531Z" fill="black"/>
<mask id="mask7_1_2637" style="mask-type:luminance" maskUnits="userSpaceOnUse" x="35" y="28" width="3" height="2">
<path d="M35.531 28.3762C35.1179 28.3762 35.0293 28.5234 35.0293 29.0251C35.0293 29.4677 35.0883 29.5862 35.531 29.5862H37.2426C37.7443 29.5862 37.8918 29.4385 37.8918 28.9368C37.8918 28.5237 37.6852 28.3762 37.2426 28.3762H35.531Z" fill="white"/>
</mask>
<g mask="url(#mask7_1_2637)">
<path d="M37.8917 28.3762H35.0293V29.5862H37.8917V28.3762Z" fill="black"/>
</g>
<path d="M37.2426 28.3762C36.8 28.3762 36.7408 28.5234 36.7408 29.0251C36.7408 29.4677 36.7999 29.5862 37.2426 29.5862H38.9542C39.4559 29.5862 39.6034 29.4385 39.6034 28.9368C39.6034 28.5237 39.3968 28.3762 38.9542 28.3762H37.2426Z" fill="black"/>
<mask id="mask8_1_2637" style="mask-type:luminance" maskUnits="userSpaceOnUse" x="36" y="28" width="4" height="2">
<path d="M37.2426 28.3762C36.8 28.3762 36.7408 28.5234 36.7408 29.0251C36.7408 29.4677 36.7999 29.5862 37.2426 29.5862H38.9542C39.4559 29.5862 39.6034 29.4385 39.6034 28.9368C39.6034 28.5237 39.3968 28.3762 38.9542 28.3762H37.2426Z" fill="white"/>
</mask>
<g mask="url(#mask8_1_2637)">
<path d="M39.6033 28.3762H36.7408V29.5862H39.6033V28.3762Z" fill="black"/>
</g>
<path d="M40.8132 18.9626C40.7542 18.9626 40.6656 18.9626 40.6656 19.1101V27.5203C40.6656 28.081 40.4591 28.3171 39.9575 28.3171H38.9542C38.4525 28.3171 38.3051 28.5235 38.3051 29.0251C38.3051 29.4677 38.5116 29.5862 38.9542 29.5862L40.1051 29.6453C41.4626 29.6453 41.9642 28.9958 41.9642 27.6384V19.0808C41.9642 19.0218 41.9642 18.9333 41.8167 18.9333H40.8134L40.8132 18.9626Z" fill="black"/>
<mask id="mask9_1_2637" style="mask-type:luminance" maskUnits="userSpaceOnUse" x="38" y="18" width="4" height="12">
<path d="M40.8132 18.9626C40.7542 18.9626 40.6656 18.9626 40.6656 19.1101V27.5203C40.6656 28.081 40.4591 28.3171 39.9575 28.3171H38.9542C38.4525 28.3171 38.3051 28.5235 38.3051 29.0251C38.3051 29.4677 38.5116 29.5862 38.9542 29.5862L40.1051 29.6453C41.4626 29.6453 41.9642 28.9958 41.9642 27.6384V19.0808C41.9642 19.0218 41.9642 18.9333 41.8167 18.9333H40.8134L40.8132 18.9626Z" fill="white"/>
</mask>
<g mask="url(#mask9_1_2637)">
<path d="M41.9346 18.9626H38.3049V29.6746H41.9346V18.9626Z" fill="black"/>
</g>
<path d="M44.3839 18.9626C44.3249 18.9626 44.2365 18.9626 44.2365 19.1101V29.4382C44.2365 29.4972 44.2364 29.5862 44.3839 29.5862H45.3872C45.4462 29.5862 45.5347 29.5857 45.5347 29.4382V19.1101C45.5347 19.0511 45.5347 18.9626 45.3872 18.9626H44.3839Z" fill="black"/>
<mask id="mask10_1_2637" style="mask-type:luminance" maskUnits="userSpaceOnUse" x="44" y="18" width="2" height="12">
<path d="M44.3839 18.9626C44.3249 18.9626 44.2365 18.9626 44.2365 19.1101V29.4382C44.2365 29.4972 44.2364 29.5862 44.3839 29.5862H45.3872C45.4462 29.5862 45.5347 29.5857 45.5347 29.4382V19.1101C45.5347 19.0511 45.5347 18.9626 45.3872 18.9626H44.3839Z" fill="white"/>
</mask>
<g mask="url(#mask10_1_2637)">
<path d="M45.5052 18.9626H44.2365V29.5862H45.5052V18.9626Z" fill="black"/>
</g>
<path d="M48.7219 26.4285C48.7219 25.012 49.4301 24.1565 50.4335 24.1565C51.5844 24.1565 52.0861 25.012 52.0861 26.3694V28.4353H50.522C49.2826 28.4353 48.7219 27.9335 48.7219 26.4285ZM47.512 26.4285C47.512 28.8483 48.6629 29.6453 50.522 29.6453H52.1746V29.9993C52.1746 31.2092 51.4664 31.5042 50.6696 31.5042H48.7513C48.6923 31.5042 48.6039 31.5041 48.6039 31.6516V32.5667C48.6039 32.6257 48.6038 32.7141 48.7513 32.7141H50.8171C52.4696 32.7141 53.532 31.8583 53.532 29.9402V26.3103C53.532 23.8905 52.4696 22.8875 50.522 22.8875C48.8695 22.8875 47.512 24.0087 47.512 26.4285Z" fill="black"/>
<mask id="mask11_1_2637" style="mask-type:luminance" maskUnits="userSpaceOnUse" x="47" y="22" width="7" height="11">
<path d="M48.7219 26.4285C48.7219 25.012 49.4301 24.1565 50.4335 24.1565C51.5844 24.1565 52.0861 25.012 52.0861 26.3694V28.4353H50.522C49.2826 28.4353 48.7219 27.9335 48.7219 26.4285ZM47.512 26.4285C47.512 28.8483 48.6629 29.6453 50.522 29.6453H52.1746V29.9993C52.1746 31.2092 51.4664 31.5042 50.6696 31.5042H48.7513C48.6923 31.5042 48.6039 31.5041 48.6039 31.6516V32.5667C48.6039 32.6257 48.6038 32.7141 48.7513 32.7141H50.8171C52.4696 32.7141 53.532 31.8583 53.532 29.9402V26.3103C53.532 23.8905 52.4696 22.8875 50.522 22.8875C48.8695 22.8875 47.512 24.0087 47.512 26.4285Z" fill="white"/>
</mask>
<g mask="url(#mask11_1_2637)">
<path d="M53.5024 22.8875H47.512V32.7439H53.5024V22.8875Z" fill="black"/>
</g>
<path d="M62.9751 31.0911C62.9161 31.0911 62.8276 31.0911 62.8276 31.2386V32.3895C62.8276 32.4485 62.8276 32.5369 62.9751 32.5369H64.0375C64.0965 32.5369 64.1851 32.537 64.1851 32.3895V31.2386C64.1851 31.1796 64.185 31.0911 64.0375 31.0911H62.9751ZM59.9946 24.0975C59.9356 24.1565 59.9946 24.2449 60.0536 24.304L60.7618 24.8646C60.8208 24.9236 60.9093 24.9236 60.9684 24.8646C61.411 24.3629 62.0308 24.0677 62.739 24.0677C64.3915 24.0677 64.8636 25.2186 64.8636 26.8416C64.8636 27.9925 64.6571 28.347 63.5062 28.347H61.0569C60.1421 28.347 58.8438 28.8484 58.8438 30.5599C58.8438 32.0649 59.7585 32.7142 61.4111 32.7142V32.5667H61.9128C61.9718 32.5667 62.0603 32.5668 62.0603 32.4193V31.5042C62.0603 31.4452 62.0603 31.3568 61.9128 31.3568H61.4111C60.3487 31.3568 60.0536 31.1504 60.0536 30.4422C60.0536 29.9405 60.2602 29.5272 60.9094 29.5272H63.9194C64.8342 29.5272 65.4834 29.3208 65.8375 28.6126C66.0441 29.2618 66.6933 29.5272 67.4015 29.5272H67.7556C68.2573 29.5272 68.4048 29.4685 68.4048 28.8783C68.4048 28.4357 68.1982 28.3172 67.7556 28.3172H67.6082C66.7524 28.3172 66.2507 27.9635 66.1917 27.3143C66.1327 27.1668 66.1917 26.9599 66.1917 26.8123C66.1917 24.7466 65.4833 22.8285 62.6208 22.8285C61.4109 22.799 60.5553 23.3893 59.9946 24.0975Z" fill="black"/>
<mask id="mask12_1_2637" style="mask-type:luminance" maskUnits="userSpaceOnUse" x="58" y="22" width="11" height="11">
<path d="M62.9751 31.0911C62.9161 31.0911 62.8276 31.0911 62.8276 31.2386V32.3895C62.8276 32.4485 62.8276 32.5369 62.9751 32.5369H64.0375C64.0965 32.5369 64.1851 32.537 64.1851 32.3895V31.2386C64.1851 31.1796 64.185 31.0911 64.0375 31.0911H62.9751ZM59.9946 24.0975C59.9356 24.1565 59.9946 24.2449 60.0536 24.304L60.7618 24.8646C60.8208 24.9236 60.9093 24.9236 60.9684 24.8646C61.411 24.3629 62.0308 24.0677 62.739 24.0677C64.3915 24.0677 64.8636 25.2186 64.8636 26.8416C64.8636 27.9925 64.6571 28.347 63.5062 28.347H61.0569C60.1421 28.347 58.8438 28.8484 58.8438 30.5599C58.8438 32.0649 59.7585 32.7142 61.4111 32.7142V32.5667H61.9128C61.9718 32.5667 62.0603 32.5668 62.0603 32.4193V31.5042C62.0603 31.4452 62.0603 31.3568 61.9128 31.3568H61.4111C60.3487 31.3568 60.0536 31.1504 60.0536 30.4422C60.0536 29.9405 60.2602 29.5272 60.9094 29.5272H63.9194C64.8342 29.5272 65.4834 29.3208 65.8375 28.6126C66.0441 29.2618 66.6933 29.5272 67.4015 29.5272H67.7556C68.2573 29.5272 68.4048 29.4685 68.4048 28.8783C68.4048 28.4357 68.1982 28.3172 67.7556 28.3172H67.6082C66.7524 28.3172 66.2507 27.9635 66.1917 27.3143C66.1327 27.1668 66.1917 26.9599 66.1917 26.8123C66.1917 24.7466 65.4833 22.8285 62.6208 22.8285C61.4109 22.799 60.5553 23.3893 59.9946 24.0975Z" fill="white"/>
</mask>
<g mask="url(#mask12_1_2637)">
<path d="M68.4049 22.7991H58.8438V32.7141H68.4049V22.7991Z" fill="black"/>
</g>
<path d="M67.8442 28.3762C67.4016 28.3762 67.3425 28.5234 67.3425 29.0251C67.3425 29.4677 67.4015 29.5862 67.8442 29.5862H69.5558C70.0575 29.5862 70.205 29.4385 70.205 28.9368C70.205 28.5237 69.9984 28.3762 69.5558 28.3762H67.8442Z" fill="black"/>
<mask id="mask13_1_2637" style="mask-type:luminance" maskUnits="userSpaceOnUse" x="67" y="28" width="4" height="2">
<path d="M67.8442 28.3762C67.4016 28.3762 67.3425 28.5234 67.3425 29.0251C67.3425 29.4677 67.4015 29.5862 67.8442 29.5862H69.5558C70.0575 29.5862 70.205 29.4385 70.205 28.9368C70.205 28.5237 69.9984 28.3762 69.5558 28.3762H67.8442Z" fill="white"/>
</mask>
<g mask="url(#mask13_1_2637)">
<path d="M70.205 28.3762H67.3425V29.5862H70.205V28.3762Z" fill="black"/>
</g>
<path d="M69.5557 28.3762C69.1131 28.3762 69.054 28.5234 69.054 29.0251C69.054 29.4677 69.113 29.5862 69.5557 29.5862H71.2673C71.769 29.5862 71.9165 29.4385 71.9165 28.9368C71.9165 28.5237 71.7099 28.3762 71.2673 28.3762H69.5557Z" fill="black"/>
<mask id="mask14_1_2637" style="mask-type:luminance" maskUnits="userSpaceOnUse" x="69" y="28" width="3" height="2">
<path d="M69.5557 28.3762C69.1131 28.3762 69.054 28.5234 69.054 29.0251C69.054 29.4677 69.113 29.5862 69.5557 29.5862H71.2673C71.769 29.5862 71.9165 29.4385 71.9165 28.9368C71.9165 28.5237 71.7099 28.3762 71.2673 28.3762H69.5557Z" fill="white"/>
</mask>
<g mask="url(#mask14_1_2637)">
<path d="M71.9165 28.3762H69.0541V29.5862H71.9165V28.3762Z" fill="black"/>
</g>
<path d="M71.3263 28.3762C70.8837 28.3762 70.8246 28.5234 70.8246 29.0251C70.8246 29.4677 70.8836 29.5862 71.3263 29.5862H73.0378C73.5395 29.5862 73.6871 29.4385 73.6871 28.9368C73.6871 28.5237 73.4804 28.3762 73.0378 28.3762H71.3263Z" fill="black"/>
<mask id="mask15_1_2637" style="mask-type:luminance" maskUnits="userSpaceOnUse" x="70" y="28" width="4" height="2">
<path d="M71.3263 28.3762C70.8837 28.3762 70.8246 28.5234 70.8246 29.0251C70.8246 29.4677 70.8836 29.5862 71.3263 29.5862H73.0378C73.5395 29.5862 73.6871 29.4385 73.6871 28.9368C73.6871 28.5237 73.4804 28.3762 73.0378 28.3762H71.3263Z" fill="white"/>
</mask>
<g mask="url(#mask15_1_2637)">
<path d="M73.6871 28.3762H70.8247V29.5862H73.6871V28.3762Z" fill="black"/>
</g>
<path d="M73.9822 24.1565C73.9232 24.2155 73.9823 24.3039 74.0413 24.363L74.7494 24.9236C74.8084 24.9826 74.897 24.9826 74.9561 24.9236C75.3987 24.4219 75.9593 24.1266 76.6085 24.0676C78.261 24.0676 78.7627 25.2186 78.7627 26.8416C78.7627 27.9925 78.5561 28.3469 77.4052 28.3469H72.9788C72.4771 28.3469 72.3295 28.4058 72.3295 28.9075C72.3295 29.3206 72.5362 29.5569 72.9788 29.5569H77.9069C78.8217 29.5569 79.4709 29.35 79.825 28.6418C80.0316 29.291 80.6807 29.5569 81.3889 29.5569H81.743C82.2447 29.5569 82.3922 29.4977 82.3922 28.9075C82.3922 28.4944 82.1856 28.3469 81.743 28.3469H81.5955C80.7397 28.3469 80.238 27.9927 80.179 27.3435C80.12 27.196 80.179 26.9892 80.179 26.8416C80.179 24.7759 79.4708 22.8582 76.6083 22.8582C75.3984 22.8877 74.5429 23.4483 73.9822 24.1565Z" fill="black"/>
<mask id="mask16_1_2637" style="mask-type:luminance" maskUnits="userSpaceOnUse" x="72" y="22" width="11" height="8">
<path d="M73.9822 24.1565C73.9232 24.2155 73.9823 24.3039 74.0413 24.363L74.7494 24.9236C74.8084 24.9826 74.897 24.9826 74.9561 24.9236C75.3987 24.4219 75.9593 24.1266 76.6085 24.0676C78.261 24.0676 78.7627 25.2186 78.7627 26.8416C78.7627 27.9925 78.5561 28.3469 77.4052 28.3469H72.9788C72.4771 28.3469 72.3295 28.4058 72.3295 28.9075C72.3295 29.3206 72.5362 29.5569 72.9788 29.5569H77.9069C78.8217 29.5569 79.4709 29.35 79.825 28.6418C80.0316 29.291 80.6807 29.5569 81.3889 29.5569H81.743C82.2447 29.5569 82.3922 29.4977 82.3922 28.9075C82.3922 28.4944 82.1856 28.3469 81.743 28.3469H81.5955C80.7397 28.3469 80.238 27.9927 80.179 27.3435C80.12 27.196 80.179 26.9892 80.179 26.8416C80.179 24.7759 79.4708 22.8582 76.6083 22.8582C75.3984 22.8877 74.5429 23.4483 73.9822 24.1565Z" fill="white"/>
</mask>
<g mask="url(#mask16_1_2637)">
<path d="M82.3925 22.8875H72.3297V29.5862H82.3925V22.8875Z" fill="black"/>
</g>
<path d="M83.6614 18.9626C83.6024 18.9626 83.5139 18.9626 83.5139 19.1101V27.5203C83.5139 28.081 83.3073 28.3171 82.8057 28.3171H81.8024C81.3007 28.3171 81.1532 28.5235 81.1532 29.0251C81.1532 29.4677 81.3598 29.5862 81.8024 29.5862L82.9532 29.6453C84.3107 29.6453 84.8124 28.9958 84.8124 27.6384V19.0808C84.8124 19.0218 84.8124 18.9333 84.6649 18.9333H83.6616L83.6614 18.9626Z" fill="black"/>
<mask id="mask17_1_2637" style="mask-type:luminance" maskUnits="userSpaceOnUse" x="81" y="18" width="4" height="12">
<path d="M83.6614 18.9626C83.6024 18.9626 83.5139 18.9626 83.5139 19.1101V27.5203C83.5139 28.081 83.3073 28.3171 82.8057 28.3171H81.8024C81.3007 28.3171 81.1532 28.5235 81.1532 29.0251C81.1532 29.4677 81.3598 29.5862 81.8024 29.5862L82.9532 29.6453C84.3107 29.6453 84.8124 28.9958 84.8124 27.6384V19.0808C84.8124 19.0218 84.8124 18.9333 84.6649 18.9333H83.6616L83.6614 18.9626Z" fill="white"/>
</mask>
<g mask="url(#mask17_1_2637)">
<path d="M84.8123 18.9626H81.1826V29.6746H84.8123V18.9626Z" fill="black"/>
</g>
<path d="M87.1731 18.9626C87.1141 18.9626 87.0256 18.9626 87.0256 19.1101V29.4382C87.0256 29.4972 87.0256 29.5862 87.1731 29.5862H88.1764C88.2354 29.5862 88.3239 29.5857 88.3239 29.4382V19.1101C88.3239 19.0511 88.3239 18.9626 88.1764 18.9626H87.1731Z" fill="black"/>
<mask id="mask18_1_2637" style="mask-type:luminance" maskUnits="userSpaceOnUse" x="87" y="18" width="2" height="12">
<path d="M87.1731 18.9626C87.1141 18.9626 87.0256 18.9626 87.0256 19.1101V29.4382C87.0256 29.4972 87.0256 29.5862 87.1731 29.5862H88.1764C88.2354 29.5862 88.3239 29.5857 88.3239 29.4382V19.1101C88.3239 19.0511 88.3239 18.9626 88.1764 18.9626H87.1731Z" fill="white"/>
</mask>
<g mask="url(#mask18_1_2637)">
<path d="M88.3239 18.9626H87.0255V29.5862H88.3239V18.9626Z" fill="black"/>
</g>
<path d="M95.2883 26.3108C95.2883 24.9534 95.79 24.1564 96.9999 24.0974C98.2098 24.0974 98.7115 24.9534 98.7115 26.3108C98.7115 27.8158 98.2098 28.4646 96.9999 28.4646C95.79 28.4351 95.2883 27.7863 95.2883 26.3108ZM93.9308 26.3108C93.9308 28.7306 95.0817 29.7336 96.9113 29.7336C98.7704 29.7336 99.9213 28.7306 99.9213 26.3108C99.9213 23.891 98.7704 22.8875 96.9113 22.8875C95.0817 22.8875 93.9308 23.8615 93.9308 26.3108ZM95.4358 20.2317C95.3768 20.2317 95.2883 20.2317 95.2883 20.3792V21.53C95.2883 21.589 95.2883 21.6775 95.4358 21.6775H96.4982C96.5572 21.6775 96.6458 21.6775 96.6458 21.53V20.3792C96.6458 20.3202 96.6457 20.2317 96.4982 20.2317H95.4358ZM97.3539 20.2317C97.2949 20.2317 97.2064 20.2317 97.2064 20.3792V21.53C97.2064 21.589 97.2064 21.6775 97.3539 21.6775H98.4163C98.4753 21.6775 98.5638 21.6775 98.5638 21.53V20.3792C98.5638 20.3202 98.5638 20.2317 98.4163 20.2317H97.3539Z" fill="black"/>
<mask id="mask19_1_2637" style="mask-type:luminance" maskUnits="userSpaceOnUse" x="93" y="20" width="7" height="10">
<path d="M95.2883 26.3108C95.2883 24.9534 95.79 24.1564 96.9999 24.0974C98.2098 24.0974 98.7115 24.9534 98.7115 26.3108C98.7115 27.8158 98.2098 28.4646 96.9999 28.4646C95.79 28.4351 95.2883 27.7863 95.2883 26.3108ZM93.9308 26.3108C93.9308 28.7306 95.0817 29.7336 96.9113 29.7336C98.7704 29.7336 99.9213 28.7306 99.9213 26.3108C99.9213 23.891 98.7704 22.8875 96.9113 22.8875C95.0817 22.8875 93.9308 23.8615 93.9308 26.3108ZM95.4358 20.2317C95.3768 20.2317 95.2883 20.2317 95.2883 20.3792V21.53C95.2883 21.589 95.2883 21.6775 95.4358 21.6775H96.4982C96.5572 21.6775 96.6458 21.6775 96.6458 21.53V20.3792C96.6458 20.3202 96.6457 20.2317 96.4982 20.2317H95.4358ZM97.3539 20.2317C97.2949 20.2317 97.2064 20.2317 97.2064 20.3792V21.53C97.2064 21.589 97.2064 21.6775 97.3539 21.6775H98.4163C98.4753 21.6775 98.5638 21.6775 98.5638 21.53V20.3792C98.5638 20.3202 98.5638 20.2317 98.4163 20.2317H97.3539Z" fill="white"/>
</mask>
<g mask="url(#mask19_1_2637)">
<path d="M99.9213 20.2317H93.9308V29.7043H99.9213V20.2317Z" fill="black"/>
</g>
<path d="M102.784 23.2415C102.725 23.2415 102.636 23.2414 102.636 23.3889V30.176C102.636 31.0908 102.194 31.5334 101.338 31.5334H100.984C100.925 31.5334 100.836 31.5339 100.836 31.6814V32.5959C100.836 32.6549 100.836 32.7434 100.984 32.7434H101.338C103.049 32.7434 103.905 31.8876 103.905 30.176V23.3889C103.905 23.3299 103.905 23.2415 103.758 23.2415H102.784Z" fill="black"/>
<mask id="mask20_1_2637" style="mask-type:luminance" maskUnits="userSpaceOnUse" x="100" y="23" width="4" height="10">
<path d="M102.784 23.2415C102.725 23.2415 102.636 23.2414 102.636 23.3889V30.176C102.636 31.0908 102.194 31.5334 101.338 31.5334H100.984C100.925 31.5334 100.836 31.5339 100.836 31.6814V32.5959C100.836 32.6549 100.836 32.7434 100.984 32.7434H101.338C103.049 32.7434 103.905 31.8876 103.905 30.176V23.3889C103.905 23.3299 103.905 23.2415 103.758 23.2415H102.784Z" fill="white"/>
</mask>
<g mask="url(#mask20_1_2637)">
<path d="M103.935 23.2415H100.866V32.7141H103.935V23.2415Z" fill="black"/>
</g>
<path d="M106.207 18.9626C106.148 18.9626 106.059 18.9626 106.059 19.1101V29.4382C106.059 29.4972 106.059 29.5862 106.207 29.5862H107.21C107.269 29.5862 107.358 29.5857 107.358 29.4382V19.1101C107.358 19.0511 107.358 18.9626 107.21 18.9626H106.207Z" fill="black"/>
<mask id="mask21_1_2637" style="mask-type:luminance" maskUnits="userSpaceOnUse" x="106" y="18" width="2" height="12">
<path d="M106.207 18.9626C106.148 18.9626 106.059 18.9626 106.059 19.1101V29.4382C106.059 29.4972 106.059 29.5862 106.207 29.5862H107.21C107.269 29.5862 107.358 29.5857 107.358 29.4382V19.1101C107.358 19.0511 107.358 18.9626 107.21 18.9626H106.207Z" fill="white"/>
</mask>
<g mask="url(#mask21_1_2637)">
<path d="M107.358 18.9626H106.059V29.5862H107.358V18.9626Z" fill="black"/>
</g>
<path d="M110.338 23.2415C110.279 23.2415 110.191 23.2414 110.191 23.3889V30.176C110.191 31.0908 109.748 31.5334 108.922 31.5334H108.568C108.509 31.5334 108.42 31.5339 108.42 31.6814V32.5959C108.42 32.6549 108.42 32.7434 108.568 32.7434H108.922C110.633 32.7434 111.489 31.8876 111.489 30.176V23.3889C111.489 23.3299 111.489 23.2415 111.342 23.2415H110.338ZM110.427 20.2317C110.368 20.2317 110.279 20.2317 110.279 20.3792V21.53C110.279 21.589 110.279 21.6775 110.427 21.6775H111.489C111.548 21.6775 111.637 21.6775 111.637 21.53V20.3792C111.637 20.3202 111.637 20.2317 111.489 20.2317H110.427Z" fill="black"/>
<mask id="mask22_1_2637" style="mask-type:luminance" maskUnits="userSpaceOnUse" x="108" y="20" width="4" height="13">
<path d="M110.338 23.2415C110.279 23.2415 110.191 23.2414 110.191 23.3889V30.176C110.191 31.0908 109.748 31.5334 108.922 31.5334H108.568C108.509 31.5334 108.42 31.5339 108.42 31.6814V32.5959C108.42 32.6549 108.42 32.7434 108.568 32.7434H108.922C110.633 32.7434 111.489 31.8876 111.489 30.176V23.3889C111.489 23.3299 111.489 23.2415 111.342 23.2415H110.338ZM110.427 20.2317C110.368 20.2317 110.279 20.2317 110.279 20.3792V21.53C110.279 21.589 110.279 21.6775 110.427 21.6775H111.489C111.548 21.6775 111.637 21.6775 111.637 21.53V20.3792C111.637 20.3202 111.637 20.2317 111.489 20.2317H110.427Z" fill="white"/>
</mask>
<g mask="url(#mask22_1_2637)">
<path d="M111.637 20.2317H108.42V32.7141H111.637V20.2317Z" fill="black"/>
</g>
<path d="M114.706 26.4285C114.706 25.012 115.414 24.1565 116.417 24.1565C117.568 24.1565 118.07 25.012 118.07 26.3694V28.4353H116.506C115.266 28.4353 114.706 27.9335 114.706 26.4285ZM113.407 26.4285C113.407 28.8483 114.558 29.6453 116.417 29.6453H118.129V29.9993C118.129 31.2092 117.421 31.5042 116.624 31.5042H114.706C114.647 31.5042 114.558 31.5041 114.558 31.6516V32.5667C114.558 32.6257 114.558 32.7141 114.706 32.7141H116.712C118.365 32.7141 119.427 31.8583 119.427 29.9402V26.3103C119.427 23.8905 118.365 22.8875 116.447 22.8875C114.765 22.8875 113.407 24.0087 113.407 26.4285Z" fill="black"/>
<mask id="mask23_1_2637" style="mask-type:luminance" maskUnits="userSpaceOnUse" x="113" y="22" width="7" height="11">
<path d="M114.706 26.4285C114.706 25.012 115.414 24.1565 116.417 24.1565C117.568 24.1565 118.07 25.012 118.07 26.3694V28.4353H116.506C115.266 28.4353 114.706 27.9335 114.706 26.4285ZM113.407 26.4285C113.407 28.8483 114.558 29.6453 116.417 29.6453H118.129V29.9993C118.129 31.2092 117.421 31.5042 116.624 31.5042H114.706C114.647 31.5042 114.558 31.5041 114.558 31.6516V32.5667C114.558 32.6257 114.558 32.7141 114.706 32.7141H116.712C118.365 32.7141 119.427 31.8583 119.427 29.9402V26.3103C119.427 23.8905 118.365 22.8875 116.447 22.8875C114.765 22.8875 113.407 24.0087 113.407 26.4285Z" fill="white"/>
</mask>
<g mask="url(#mask23_1_2637)">
<path d="M119.398 22.8875H113.407V32.7439H119.398V22.8875Z" fill="black"/>
</g>
<path d="M5.51959 37.8489C5.48026 37.8489 5.43107 37.8686 5.37207 37.908L3.6015 41.9802H3.513L1.74237 37.908C1.74237 37.908 1.68341 37.8489 1.59491 37.8489H1.03418C1.03418 37.8489 0.97522 37.849 0.97522 37.908H1.12268V43.7507C1.12268 43.7507 1.1227 43.8098 1.1817 43.8098H1.74237C1.74237 43.8098 1.80139 43.8097 1.80139 43.7507V39.7078L3.2179 42.8362C3.2179 42.8362 3.27692 42.8948 3.36542 42.8948H3.71948C3.75882 42.8948 3.808 42.8755 3.867 42.8362L5.37201 39.5603H5.43103V43.78C5.43103 43.78 5.43099 43.8391 5.48999 43.8391H6.05072C6.05072 43.8391 6.10968 43.839 6.10968 43.78V37.9373C6.10968 37.9373 6.10972 37.8782 6.05072 37.8782H5.51947L5.51959 37.8489Z" fill="black"/>
<mask id="mask24_1_2637" style="mask-type:luminance" maskUnits="userSpaceOnUse" x="0" y="37" width="7" height="7">
<path d="M5.51959 37.8489C5.48026 37.8489 5.43107 37.8686 5.37207 37.908L3.6015 41.9802H3.513L1.74237 37.908C1.74237 37.908 1.68341 37.8489 1.59491 37.8489H1.03418C1.03418 37.8489 0.97522 37.849 0.97522 37.908H1.12268V43.7507C1.12268 43.7507 1.1227 43.8098 1.1817 43.8098H1.74237C1.74237 43.8098 1.80139 43.8097 1.80139 43.7507V39.7078L3.2179 42.8362C3.2179 42.8362 3.27692 42.8948 3.36542 42.8948H3.71948C3.75882 42.8948 3.808 42.8755 3.867 42.8362L5.37201 39.5603H5.43103V43.78C5.43103 43.78 5.43099 43.8391 5.48999 43.8391H6.05072C6.05072 43.8391 6.10968 43.839 6.10968 43.78V37.9373C6.10968 37.9373 6.10972 37.8782 6.05072 37.8782H5.51947L5.51959 37.8489Z" fill="white"/>
</mask>
<g mask="url(#mask24_1_2637)">
<path d="M6.13928 37.8489H0.945618V43.8396H6.13928V37.8489Z" fill="black"/>
</g>
<path d="M7.64429 37.8489C7.64429 37.8489 7.58533 37.849 7.58533 37.908V43.7507C7.58533 43.7507 7.58529 43.8098 7.64429 43.8098H8.20502C8.20502 43.8098 8.26398 43.8097 8.26398 43.7507V37.908C8.26398 37.908 8.26402 37.8489 8.20502 37.8489H7.64429Z" fill="black"/>
<mask id="mask25_1_2637" style="mask-type:luminance" maskUnits="userSpaceOnUse" x="7" y="37" width="2" height="7">
<path d="M7.64429 37.8489C7.64429 37.8489 7.58533 37.849 7.58533 37.908V43.7507C7.58533 43.7507 7.58529 43.8098 7.64429 43.8098H8.20502C8.20502 43.8098 8.26398 43.8097 8.26398 43.7507V37.908C8.26398 37.908 8.26402 37.8489 8.20502 37.8489H7.64429Z" fill="white"/>
</mask>
<g mask="url(#mask25_1_2637)">
<path d="M8.29352 37.8489H7.58533V43.8396H8.29352V37.8489Z" fill="black"/>
</g>
<path d="M13.4282 37.8489C13.4282 37.8489 13.3692 37.849 13.3692 37.908V42.3933H13.3102L10.5953 37.908C10.5953 37.908 10.5363 37.8489 10.4478 37.8489H9.88708C9.88708 37.8489 9.82813 37.849 9.82813 37.908V43.7507C9.82813 43.7507 9.82808 43.8098 9.88708 43.8098H10.4478C10.4478 43.8098 10.5068 43.8097 10.5068 43.7507V39.2654H10.5658L13.2807 43.7507C13.2807 43.7507 13.3397 43.8098 13.4282 43.8098H13.9889C13.9889 43.8098 14.0479 43.8097 14.0479 43.7507V37.908C14.0479 37.908 14.0479 37.8489 13.9889 37.8489H13.4282Z" fill="black"/>
<mask id="mask26_1_2637" style="mask-type:luminance" maskUnits="userSpaceOnUse" x="9" y="37" width="6" height="7">
<path d="M13.4282 37.8489C13.4282 37.8489 13.3692 37.849 13.3692 37.908V42.3933H13.3102L10.5953 37.908C10.5953 37.908 10.5363 37.8489 10.4478 37.8489H9.88708C9.88708 37.8489 9.82813 37.849 9.82813 37.908V43.7507C9.82813 43.7507 9.82808 43.8098 9.88708 43.8098H10.4478C10.4478 43.8098 10.5068 43.8097 10.5068 43.7507V39.2654H10.5658L13.2807 43.7507C13.2807 43.7507 13.3397 43.8098 13.4282 43.8098H13.9889C13.9889 43.8098 14.0479 43.8097 14.0479 43.7507V37.908C14.0479 37.908 14.0479 37.8489 13.9889 37.8489H13.4282Z" fill="white"/>
</mask>
<g mask="url(#mask26_1_2637)">
<path d="M14.0774 37.8489H9.79852V43.8396H14.0774V37.8489Z" fill="black"/>
</g>
<path d="M15.5529 37.8489C15.5529 37.8489 15.4939 37.849 15.4939 37.908V43.7507C15.4939 43.7507 15.4939 43.8098 15.5529 43.8098H16.1136C16.1136 43.8098 16.1726 43.8097 16.1726 43.7507V37.908C16.1726 37.908 16.1726 37.8489 16.1136 37.8489H15.5529Z" fill="black"/>
<mask id="mask27_1_2637" style="mask-type:luminance" maskUnits="userSpaceOnUse" x="15" y="37" width="2" height="7">
<path d="M15.5529 37.8489C15.5529 37.8489 15.4939 37.849 15.4939 37.908V43.7507C15.4939 43.7507 15.4939 43.8098 15.5529 43.8098H16.1136C16.1136 43.8098 16.1726 43.8097 16.1726 43.7507V37.908C16.1726 37.908 16.1726 37.8489 16.1136 37.8489H15.5529Z" fill="white"/>
</mask>
<g mask="url(#mask27_1_2637)">
<path d="M16.2021 37.8489H15.4939V43.8396H16.2021V37.8489Z" fill="black"/>
</g>
<path d="M17.5005 39.4128C17.5005 40.4161 18.1497 40.9767 19.2711 41.1243H19.6252C20.6285 41.3309 20.9236 41.6261 20.9236 42.1277C20.9236 42.6884 20.4219 43.1311 19.5662 43.1311C18.858 43.1311 18.2088 42.8362 17.8546 42.5706C17.8153 42.5312 17.7661 42.5312 17.7071 42.5706L17.353 43.072C17.3137 43.1114 17.3137 43.1605 17.353 43.2195C17.8547 43.6326 18.7104 43.928 19.2711 43.928C20.7761 43.928 21.4843 43.1308 21.4843 42.157C21.4843 41.1537 20.8351 40.5932 19.7137 40.4456L19.4186 40.3865C18.5038 40.239 18.1202 39.9441 18.1202 39.4719C18.1202 38.8227 18.5628 38.4685 19.2711 38.4685C19.8318 38.4685 20.2744 38.6158 20.7761 38.9109C20.8155 38.9502 20.8646 38.9502 20.9236 38.9109L21.2187 38.4094C21.258 38.3701 21.258 38.321 21.2187 38.262C20.7761 37.9079 20.1563 37.7009 19.4481 37.7009C18.2677 37.6419 17.5005 38.3504 17.5005 39.4128Z" fill="black"/>
<mask id="mask28_1_2637" style="mask-type:luminance" maskUnits="userSpaceOnUse" x="17" y="37" width="5" height="7">
<path d="M17.5005 39.4128C17.5005 40.4161 18.1497 40.9767 19.2711 41.1243H19.6252C20.6285 41.3309 20.9236 41.6261 20.9236 42.1277C20.9236 42.6884 20.4219 43.1311 19.5662 43.1311C18.858 43.1311 18.2088 42.8362 17.8546 42.5706C17.8153 42.5312 17.7661 42.5312 17.7071 42.5706L17.353 43.072C17.3137 43.1114 17.3137 43.1605 17.353 43.2195C17.8547 43.6326 18.7104 43.928 19.2711 43.928C20.7761 43.928 21.4843 43.1308 21.4843 42.157C21.4843 41.1537 20.8351 40.5932 19.7137 40.4456L19.4186 40.3865C18.5038 40.239 18.1202 39.9441 18.1202 39.4719C18.1202 38.8227 18.5628 38.4685 19.2711 38.4685C19.8318 38.4685 20.2744 38.6158 20.7761 38.9109C20.8155 38.9502 20.8646 38.9502 20.9236 38.9109L21.2187 38.4094C21.258 38.3701 21.258 38.321 21.2187 38.262C20.7761 37.9079 20.1563 37.7009 19.4481 37.7009C18.2677 37.6419 17.5005 38.3504 17.5005 39.4128Z" fill="white"/>
</mask>
<g mask="url(#mask28_1_2637)">
<path d="M21.4844 37.6423H17.2645V43.928H21.4844V37.6423Z" fill="black"/>
</g>
<path d="M22.3401 37.8489C22.3401 37.8489 22.2811 37.849 22.2811 37.908V38.4685C22.2811 38.4685 22.2811 38.5276 22.3401 38.5276H23.9926C24.0319 38.5276 24.0516 38.5473 24.0516 38.5867V43.7214C24.0516 43.7214 24.0516 43.78 24.1106 43.78H24.7598C24.7598 43.78 24.8188 43.7804 24.8188 43.7214V38.5867C24.8188 38.5473 24.8385 38.5276 24.8778 38.5276H26.5303C26.5303 38.5276 26.5894 38.5275 26.5894 38.4685V37.908C26.5894 37.908 26.5893 37.8489 26.5303 37.8489H22.3401Z" fill="black"/>
<mask id="mask29_1_2637" style="mask-type:luminance" maskUnits="userSpaceOnUse" x="22" y="37" width="5" height="7">
<path d="M22.3401 37.8489C22.3401 37.8489 22.2811 37.849 22.2811 37.908V38.4685C22.2811 38.4685 22.2811 38.5276 22.3401 38.5276H23.9926C24.0319 38.5276 24.0516 38.5473 24.0516 38.5867V43.7214C24.0516 43.7214 24.0516 43.78 24.1106 43.78H24.7598C24.7598 43.78 24.8188 43.7804 24.8188 43.7214V38.5867C24.8188 38.5473 24.8385 38.5276 24.8778 38.5276H26.5303C26.5303 38.5276 26.5894 38.5275 26.5894 38.4685V37.908C26.5894 37.908 26.5893 37.8489 26.5303 37.8489H22.3401Z" fill="white"/>
</mask>
<g mask="url(#mask29_1_2637)">
<path d="M26.619 37.8489H22.2811V43.8396H26.619V37.8489Z" fill="black"/>
</g>
<path d="M28.3306 40.5637V38.6458C28.3306 38.6064 28.3503 38.5867 28.3896 38.5867H29.7471C30.5439 38.5867 30.8979 38.9409 30.8979 39.5901C30.8979 40.2393 30.4554 40.593 29.7471 40.593L28.3896 40.6521C28.3503 40.6324 28.3306 40.6031 28.3306 40.5637ZM27.6814 37.9373C27.6814 37.9373 27.6224 37.9373 27.6224 37.9963V43.8391C27.6224 43.8391 27.6224 43.8982 27.6814 43.8982H28.2421C28.2421 43.8982 28.3011 43.8981 28.3011 43.8391V41.4197C28.3011 41.3803 28.3208 41.3606 28.3601 41.3606H29.6584L30.8684 43.78C30.9274 43.78 30.9274 43.8391 31.0159 43.8391L31.8127 43.8982C31.9111 43.8982 31.9307 43.8784 31.8717 43.8391L30.5732 41.2717C31.2814 40.9766 31.7242 40.4162 31.7242 39.6194C31.7242 38.6161 30.9275 37.908 29.8062 37.908H27.6814V37.9373Z" fill="black"/>
<mask id="mask30_1_2637" style="mask-type:luminance" maskUnits="userSpaceOnUse" x="27" y="37" width="5" height="7">
<path d="M28.3306 40.5637V38.6458C28.3306 38.6064 28.3503 38.5867 28.3896 38.5867H29.7471C30.5439 38.5867 30.8979 38.9409 30.8979 39.5901C30.8979 40.2393 30.4554 40.593 29.7471 40.593L28.3896 40.6521C28.3503 40.6324 28.3306 40.6031 28.3306 40.5637ZM27.6814 37.9373C27.6814 37.9373 27.6224 37.9373 27.6224 37.9963V43.8391C27.6224 43.8391 27.6224 43.8982 27.6814 43.8982H28.2421C28.2421 43.8982 28.3011 43.8981 28.3011 43.8391V41.4197C28.3011 41.3803 28.3208 41.3606 28.3601 41.3606H29.6584L30.8684 43.78C30.9274 43.78 30.9274 43.8391 31.0159 43.8391L31.8127 43.8982C31.9111 43.8982 31.9307 43.8784 31.8717 43.8391L30.5732 41.2717C31.2814 40.9766 31.7242 40.4162 31.7242 39.6194C31.7242 38.6161 30.9275 37.908 29.8062 37.908H27.6814V37.9373Z" fill="white"/>
</mask>
<g mask="url(#mask30_1_2637)">
<path d="M31.9603 37.9373H27.6224V43.928H31.9603V37.9373Z" fill="black"/>
</g>
<path d="M36.0916 37.9373C36.0523 37.9373 36.0032 37.957 35.9442 37.9963L34.5866 40.5637L33.2292 37.9963C33.1702 37.9963 33.1701 37.9373 33.0816 37.9373H32.4325C32.3735 37.9373 32.285 37.9373 32.3735 37.9963L34.144 41.4197V43.7805C34.144 43.7805 34.1441 43.8396 34.2031 43.8396H34.8523C34.8523 43.8396 34.9112 43.8395 34.9112 43.7805V41.4197L36.6819 37.9963C36.6819 37.9963 36.6819 37.9373 36.6229 37.9373H36.0916Z" fill="black"/>
<mask id="mask31_1_2637" style="mask-type:luminance" maskUnits="userSpaceOnUse" x="32" y="37" width="5" height="7">
<path d="M36.0916 37.9373C36.0523 37.9373 36.0032 37.957 35.9442 37.9963L34.5866 40.5637L33.2292 37.9963C33.1702 37.9963 33.1701 37.9373 33.0816 37.9373H32.4325C32.3735 37.9373 32.285 37.9373 32.3735 37.9963L34.144 41.4197V43.7805C34.144 43.7805 34.1441 43.8396 34.2031 43.8396H34.8523C34.8523 43.8396 34.9112 43.8395 34.9112 43.7805V41.4197L36.6819 37.9963C36.6819 37.9963 36.6819 37.9373 36.6229 37.9373H36.0916Z" fill="white"/>
</mask>
<g mask="url(#mask31_1_2637)">
<path d="M36.7408 37.9373H32.3145V43.8689H36.7408V37.9373Z" fill="black"/>
</g>
<path d="M40.105 42.2751C40.046 42.0685 39.9575 41.6261 39.9575 40.7703C39.9575 39.8555 40.0165 39.5015 40.105 39.2654C40.3116 38.6162 40.6657 38.3503 41.4034 38.3503C42.1116 38.3503 42.5543 38.7047 42.7018 39.2654C42.7608 39.472 42.8492 39.9145 42.8492 40.7703C42.8492 41.6851 42.7903 42.0685 42.7018 42.2751C42.5543 42.9243 42.1411 43.1902 41.4034 43.1902C40.6657 43.1902 40.2525 42.8358 40.105 42.2751ZM39.3969 39.0588C39.3379 39.4129 39.2493 39.767 39.2493 40.7703C39.2493 41.7736 39.2494 42.1276 39.3969 42.4817C39.692 43.485 40.4 43.8982 41.4034 43.8982C42.4658 43.8982 43.1741 43.3965 43.4692 42.4817C43.5282 42.1276 43.6167 41.7736 43.6167 40.7703C43.6167 39.767 43.6167 39.4129 43.4692 39.0588C43.1151 38.144 42.4067 37.6423 41.4034 37.6423C40.3706 37.6423 39.6625 38.144 39.3969 39.0588Z" fill="black"/>
<mask id="mask32_1_2637" style="mask-type:luminance" maskUnits="userSpaceOnUse" x="39" y="37" width="5" height="7">
<path d="M40.105 42.2751C40.046 42.0685 39.9575 41.6261 39.9575 40.7703C39.9575 39.8555 40.0165 39.5015 40.105 39.2654C40.3116 38.6162 40.6657 38.3503 41.4034 38.3503C42.1116 38.3503 42.5543 38.7047 42.7018 39.2654C42.7608 39.472 42.8492 39.9145 42.8492 40.7703C42.8492 41.6851 42.7903 42.0685 42.7018 42.2751C42.5543 42.9243 42.1411 43.1902 41.4034 43.1902C40.6657 43.1902 40.2525 42.8358 40.105 42.2751ZM39.3969 39.0588C39.3379 39.4129 39.2493 39.767 39.2493 40.7703C39.2493 41.7736 39.2494 42.1276 39.3969 42.4817C39.692 43.485 40.4 43.8982 41.4034 43.8982C42.4658 43.8982 43.1741 43.3965 43.4692 42.4817C43.5282 42.1276 43.6167 41.7736 43.6167 40.7703C43.6167 39.767 43.6167 39.4129 43.4692 39.0588C43.1151 38.144 42.4067 37.6423 41.4034 37.6423C40.3706 37.6423 39.6625 38.144 39.3969 39.0588Z" fill="white"/>
</mask>
<g mask="url(#mask32_1_2637)">
<path d="M43.5872 37.6423H39.2491V43.928H43.5872V37.6423Z" fill="black"/>
</g>
<path d="M44.8856 37.8489C44.8856 37.8489 44.8267 37.849 44.8267 37.908L44.8856 43.6917C44.8856 43.6917 44.8856 43.7507 44.9446 43.7507H45.5052C45.5052 43.7507 45.5643 43.7507 45.5643 43.6917V41.2717C45.5643 41.2324 45.584 41.2131 45.6233 41.2131H48.0431C48.0431 41.2131 48.1021 41.2131 48.1021 41.1541V40.593C48.1021 40.593 48.1021 40.5344 48.0431 40.5344H45.6233C45.584 40.5344 45.5643 40.5147 45.5643 40.4753V38.7048C45.5643 38.6655 45.584 38.6458 45.6233 38.6458H48.4857C48.4857 38.6458 48.5447 38.6457 48.5447 38.5867V38.0261C48.5447 38.0261 48.5447 37.967 48.4857 37.967H44.8855L44.8856 37.8489Z" fill="black"/>
<mask id="mask33_1_2637" style="mask-type:luminance" maskUnits="userSpaceOnUse" x="44" y="37" width="5" height="7">
<path d="M44.8856 37.8489C44.8856 37.8489 44.8267 37.849 44.8267 37.908L44.8856 43.6917C44.8856 43.6917 44.8856 43.7507 44.9446 43.7507H45.5052C45.5052 43.7507 45.5643 43.7507 45.5643 43.6917V41.2717C45.5643 41.2324 45.584 41.2131 45.6233 41.2131H48.0431C48.0431 41.2131 48.1021 41.2131 48.1021 41.1541V40.593C48.1021 40.593 48.1021 40.5344 48.0431 40.5344H45.6233C45.584 40.5344 45.5643 40.5147 45.5643 40.4753V38.7048C45.5643 38.6655 45.584 38.6458 45.6233 38.6458H48.4857C48.4857 38.6458 48.5447 38.6457 48.5447 38.5867V38.0261C48.5447 38.0261 48.5447 37.967 48.4857 37.967H44.8855L44.8856 37.8489Z" fill="white"/>
</mask>
<g mask="url(#mask33_1_2637)">
<path d="M48.5743 37.8489H44.7971V43.7805H48.5743V37.8489Z" fill="black"/>
</g>
<path d="M55.214 37.8489C55.214 37.8489 55.155 37.849 55.155 37.908V40.3279C55.155 40.3672 55.1353 40.3865 55.0959 40.3865H52.4991C52.4598 40.3865 52.4401 40.3672 52.4401 40.3279V37.908C52.4401 37.908 52.4401 37.8489 52.3811 37.8489H51.8204C51.8204 37.8489 51.7614 37.849 51.7614 37.908V43.7507C51.7614 43.7507 51.7614 43.8098 51.8204 43.8098H52.3811C52.3811 43.8098 52.4401 43.8097 52.4401 43.7507V41.1833C52.4401 41.144 52.4598 41.1243 52.4991 41.1243H55.0664C55.1057 41.1243 55.1254 41.144 55.1254 41.1833V43.7507C55.1254 43.7507 55.1254 43.8098 55.1844 43.8098H55.7451C55.7451 43.8098 55.8041 43.8097 55.8041 43.7507V37.908C55.8041 37.908 55.8041 37.8489 55.7451 37.8489H55.214Z" fill="black"/>
<mask id="mask34_1_2637" style="mask-type:luminance" maskUnits="userSpaceOnUse" x="51" y="37" width="5" height="7">
<path d="M55.214 37.8489C55.214 37.8489 55.155 37.849 55.155 37.908V40.3279C55.155 40.3672 55.1353 40.3865 55.0959 40.3865H52.4991C52.4598 40.3865 52.4401 40.3672 52.4401 40.3279V37.908C52.4401 37.908 52.4401 37.8489 52.3811 37.8489H51.8204C51.8204 37.8489 51.7614 37.849 51.7614 37.908V43.7507C51.7614 43.7507 51.7614 43.8098 51.8204 43.8098H52.3811C52.3811 43.8098 52.4401 43.8097 52.4401 43.7507V41.1833C52.4401 41.144 52.4598 41.1243 52.4991 41.1243H55.0664C55.1057 41.1243 55.1254 41.144 55.1254 41.1833V43.7507C55.1254 43.7507 55.1254 43.8098 55.1844 43.8098H55.7451C55.7451 43.8098 55.8041 43.8097 55.8041 43.7507V37.908C55.8041 37.908 55.8041 37.8489 55.7451 37.8489H55.214Z" fill="white"/>
</mask>
<g mask="url(#mask34_1_2637)">
<path d="M55.8633 37.8489H51.7319V43.8396H55.8633V37.8489Z" fill="black"/>
</g>
<path d="M59.434 39.0588L60.3488 41.7737H58.4896L59.434 39.0588ZM59.0798 37.8489C59.0798 37.8489 59.0208 37.849 59.0208 37.908L56.8961 43.7507C56.8961 43.7507 56.8961 43.8098 56.9551 43.8098H57.5157C57.5551 43.8098 57.6043 43.7901 57.6633 43.7507L58.165 42.4524H60.5848L61.0865 43.7507C61.1455 43.7507 61.1455 43.8098 61.234 43.8098H61.7947C61.834 43.8098 61.8538 43.7901 61.8538 43.7507L59.788 37.908C59.729 37.908 59.729 37.8489 59.6405 37.8489H59.0798Z" fill="black"/>
<mask id="mask35_1_2637" style="mask-type:luminance" maskUnits="userSpaceOnUse" x="56" y="37" width="6" height="7">
<path d="M59.434 39.0588L60.3488 41.7737H58.4896L59.434 39.0588ZM59.0798 37.8489C59.0798 37.8489 59.0208 37.849 59.0208 37.908L56.8961 43.7507C56.8961 43.7507 56.8961 43.8098 56.9551 43.8098H57.5157C57.5551 43.8098 57.6043 43.7901 57.6633 43.7507L58.165 42.4524H60.5848L61.0865 43.7507C61.1455 43.7507 61.1455 43.8098 61.234 43.8098H61.7947C61.834 43.8098 61.8538 43.7901 61.8538 43.7507L59.788 37.908C59.729 37.908 59.729 37.8489 59.6405 37.8489H59.0798Z" fill="white"/>
</mask>
<g mask="url(#mask35_1_2637)">
<path d="M61.8538 37.8489H56.8666V43.8396H61.8538V37.8489Z" fill="black"/>
</g>
<path d="M64.9227 37.8489C64.9227 37.8489 64.8636 37.849 64.8636 37.908V41.9211C64.8636 42.8359 64.4506 43.2195 63.7128 43.2195C63.3587 43.2195 63.0047 43.013 62.8571 42.8655C62.8177 42.8261 62.7685 42.8261 62.7095 42.8655L62.2668 43.2195C62.2668 43.2588 62.2472 43.3079 62.2079 43.3669C62.503 43.662 63.0637 43.928 63.6244 43.928C64.8343 43.928 65.5425 43.2786 65.5425 41.9211V37.9373C65.5425 37.9373 65.5425 37.8782 65.4835 37.8782H64.9229L64.9227 37.8489Z" fill="black"/>
<mask id="mask36_1_2637" style="mask-type:luminance" maskUnits="userSpaceOnUse" x="62" y="37" width="4" height="7">
<path d="M64.9227 37.8489C64.9227 37.8489 64.8636 37.849 64.8636 37.908V41.9211C64.8636 42.8359 64.4506 43.2195 63.7128 43.2195C63.3587 43.2195 63.0047 43.013 62.8571 42.8655C62.8177 42.8261 62.7685 42.8261 62.7095 42.8655L62.2668 43.2195C62.2668 43.2588 62.2472 43.3079 62.2079 43.3669C62.503 43.662 63.0637 43.928 63.6244 43.928C64.8343 43.928 65.5425 43.2786 65.5425 41.9211V37.9373C65.5425 37.9373 65.5425 37.8782 65.4835 37.8782H64.9229L64.9227 37.8489Z" fill="white"/>
</mask>
<g mask="url(#mask36_1_2637)">
<path d="M65.5719 37.8489H62.2078V43.8982H65.5719V37.8489Z" fill="black"/>
</g>
<path d="M69.2017 37.8489C69.2017 37.8489 69.1426 37.849 69.1426 37.908V41.9211C69.1426 42.8359 68.7 43.2195 67.9917 43.2195C67.6376 43.2195 67.2835 43.013 67.1359 42.8655C67.0965 42.8261 67.0474 42.8261 66.9884 42.8655L66.5753 43.2195C66.5753 43.2588 66.5557 43.3079 66.5164 43.3669C66.8115 43.662 67.372 43.928 67.9327 43.928C69.1426 43.928 69.851 43.2786 69.851 41.9211V37.9373C69.851 37.9373 69.8509 37.8782 69.7919 37.8782H69.2017V37.8489Z" fill="black"/>
<mask id="mask37_1_2637" style="mask-type:luminance" maskUnits="userSpaceOnUse" x="66" y="37" width="4" height="7">
<path d="M69.2017 37.8489C69.2017 37.8489 69.1426 37.849 69.1426 37.908V41.9211C69.1426 42.8359 68.7 43.2195 67.9917 43.2195C67.6376 43.2195 67.2835 43.013 67.1359 42.8655C67.0965 42.8261 67.0474 42.8261 66.9884 42.8655L66.5753 43.2195C66.5753 43.2588 66.5557 43.3079 66.5164 43.3669C66.8115 43.662 67.372 43.928 67.9327 43.928C69.1426 43.928 69.851 43.2786 69.851 41.9211V37.9373C69.851 37.9373 69.8509 37.8782 69.7919 37.8782H69.2017V37.8489Z" fill="white"/>
</mask>
<g mask="url(#mask37_1_2637)">
<path d="M69.8508 37.8489H66.4867V43.8982H69.8508V37.8489Z" fill="black"/>
</g>
<path d="M75.3987 39.0588L76.3135 41.7737H74.4543L75.3987 39.0588ZM75.0446 37.8489C75.0446 37.8489 74.9856 37.849 74.9856 37.908L72.7725 43.7507C72.7725 43.7507 72.7724 43.8098 72.8314 43.8098H73.3921C73.4314 43.8098 73.4806 43.7901 73.5396 43.7507L74.0413 42.4524H76.5496L77.0513 43.7507C77.1103 43.7507 77.1104 43.8098 77.1989 43.8098H77.7595C77.7989 43.8098 77.8185 43.7901 77.8185 43.7507L75.7528 37.908C75.6938 37.908 75.6938 37.8489 75.6053 37.8489H75.0446Z" fill="black"/>
<mask id="mask38_1_2637" style="mask-type:luminance" maskUnits="userSpaceOnUse" x="72" y="37" width="6" height="7">
<path d="M75.3987 39.0588L76.3135 41.7737H74.4543L75.3987 39.0588ZM75.0446 37.8489C75.0446 37.8489 74.9856 37.849 74.9856 37.908L72.7725 43.7507C72.7725 43.7507 72.7724 43.8098 72.8314 43.8098H73.3921C73.4314 43.8098 73.4806 43.7901 73.5396 43.7507L74.0413 42.4524H76.5496L77.0513 43.7507C77.1103 43.7507 77.1104 43.8098 77.1989 43.8098H77.7595C77.7989 43.8098 77.8185 43.7901 77.8185 43.7507L75.7528 37.908C75.6938 37.908 75.6938 37.8489 75.6053 37.8489H75.0446Z" fill="white"/>
</mask>
<g mask="url(#mask38_1_2637)">
<path d="M77.848 37.8489H72.7723V43.8396H77.848V37.8489Z" fill="black"/>
</g>
<path d="M82.304 37.8489C82.304 37.8489 82.245 37.849 82.245 37.908V42.3933H82.186L79.4711 37.908C79.4711 37.908 79.4121 37.8489 79.3236 37.8489H78.7629C78.7629 37.8489 78.7039 37.849 78.7039 37.908V43.7507C78.7039 43.7507 78.7039 43.8098 78.7629 43.8098H79.3236C79.3236 43.8098 79.3826 43.8097 79.3826 43.7507V39.2654H79.4417L82.1565 43.7507C82.1565 43.7507 82.2155 43.8098 82.304 43.8098H82.8647C82.8647 43.8098 82.9237 43.8097 82.9237 43.7507V37.908C82.9237 37.908 82.9237 37.8489 82.8647 37.8489H82.304Z" fill="black"/>
<mask id="mask39_1_2637" style="mask-type:luminance" maskUnits="userSpaceOnUse" x="78" y="37" width="5" height="7">
<path d="M82.304 37.8489C82.304 37.8489 82.245 37.849 82.245 37.908V42.3933H82.186L79.4711 37.908C79.4711 37.908 79.4121 37.8489 79.3236 37.8489H78.7629C78.7629 37.8489 78.7039 37.849 78.7039 37.908V43.7507C78.7039 43.7507 78.7039 43.8098 78.7629 43.8098H79.3236C79.3236 43.8098 79.3826 43.8097 79.3826 43.7507V39.2654H79.4417L82.1565 43.7507C82.1565 43.7507 82.2155 43.8098 82.304 43.8098H82.8647C82.8647 43.8098 82.9237 43.8097 82.9237 43.7507V37.908C82.9237 37.908 82.9237 37.8489 82.8647 37.8489H82.304Z" fill="white"/>
</mask>
<g mask="url(#mask39_1_2637)">
<path d="M82.9532 37.8489H78.6743V43.8396H82.9532V37.8489Z" fill="black"/>
</g>
<path d="M85.1664 38.6458C85.1664 38.6064 85.186 38.5867 85.2253 38.5867H86.3763C87.0845 38.5867 87.5272 38.7933 87.7338 39.3835C87.7928 39.5901 87.8813 39.9441 87.8813 40.8884C87.8813 41.8917 87.8223 42.1867 87.7338 42.3933C87.5272 42.954 87.0846 43.1902 86.3763 43.1902L85.2253 43.1311C85.2253 43.1704 85.2253 43.1704 85.2253 43.1311H85.1664V38.6458ZM84.4583 37.8489C84.4583 37.8489 84.3992 37.849 84.3992 37.908V43.7507C84.3992 43.7507 84.3993 43.8098 84.4583 43.8098H86.4648C87.4681 43.8098 88.1175 43.3673 88.3831 42.5115C88.4421 42.1574 88.5305 41.8623 88.5305 40.8C88.5305 39.7377 88.4716 39.4423 88.3831 39.0881C88.1765 38.2323 87.4681 37.7898 86.4648 37.7898H84.4583V37.8489Z" fill="black"/>
<mask id="mask40_1_2637" style="mask-type:luminance" maskUnits="userSpaceOnUse" x="84" y="37" width="5" height="7">
<path d="M85.1664 38.6458C85.1664 38.6064 85.186 38.5867 85.2253 38.5867H86.3763C87.0845 38.5867 87.5272 38.7933 87.7338 39.3835C87.7928 39.5901 87.8813 39.9441 87.8813 40.8884C87.8813 41.8917 87.8223 42.1867 87.7338 42.3933C87.5272 42.954 87.0846 43.1902 86.3763 43.1902L85.2253 43.1311C85.2253 43.1704 85.2253 43.1704 85.2253 43.1311H85.1664V38.6458ZM84.4583 37.8489C84.4583 37.8489 84.3992 37.849 84.3992 37.908V43.7507C84.3992 43.7507 84.3993 43.8098 84.4583 43.8098H86.4648C87.4681 43.8098 88.1175 43.3673 88.3831 42.5115C88.4421 42.1574 88.5305 41.8623 88.5305 40.8C88.5305 39.7377 88.4716 39.4423 88.3831 39.0881C88.1765 38.2323 87.4681 37.7898 86.4648 37.7898H84.4583V37.8489Z" fill="white"/>
</mask>
<g mask="url(#mask40_1_2637)">
<path d="M88.5306 37.8489H84.3992V43.8396H88.5306V37.8489Z" fill="black"/>
</g>
<path d="M95.3768 37.8489C95.3768 37.8489 95.3177 37.849 95.3177 37.908V41.6848C95.3177 42.6881 94.8161 43.1902 93.9603 43.1902C93.1045 43.1902 92.6028 42.6881 92.6028 41.6848V37.908C92.6028 37.908 92.6028 37.8489 92.5438 37.8489H91.9832C91.9832 37.8489 91.9241 37.849 91.9241 37.908V41.7737C91.9241 43.1312 92.6323 43.9281 93.9308 43.9871C95.2883 43.9871 96.085 43.1902 96.085 41.7737V37.908C96.085 37.908 96.085 37.8489 96.026 37.8489H95.3768Z" fill="black"/>
<mask id="mask41_1_2637" style="mask-type:luminance" maskUnits="userSpaceOnUse" x="91" y="37" width="6" height="7">
<path d="M95.3768 37.8489C95.3768 37.8489 95.3177 37.849 95.3177 37.908V41.6848C95.3177 42.6881 94.8161 43.1902 93.9603 43.1902C93.1045 43.1902 92.6028 42.6881 92.6028 41.6848V37.908C92.6028 37.908 92.6028 37.8489 92.5438 37.8489H91.9832C91.9832 37.8489 91.9241 37.849 91.9241 37.908V41.7737C91.9241 43.1312 92.6323 43.9281 93.9308 43.9871C95.2883 43.9871 96.085 43.1902 96.085 41.7737V37.908C96.085 37.908 96.085 37.8489 96.026 37.8489H95.3768Z" fill="white"/>
</mask>
<g mask="url(#mask41_1_2637)">
<path d="M95.9965 37.8489H91.8651V43.9871H95.9965V37.8489Z" fill="black"/>
</g>
<path d="M102.075 37.8489C102.036 37.8489 101.987 37.8686 101.928 37.908L100.157 41.9802H100.098L98.3278 37.908C98.3278 37.908 98.2688 37.8489 98.1803 37.8489H97.6196C97.6196 37.8489 97.5605 37.849 97.5605 37.908V43.7507C97.5605 43.7507 97.5606 43.8098 97.6196 43.8098H98.1803C98.1803 43.8098 98.2393 43.8097 98.2393 43.7507V39.5603H98.2983L99.8033 42.8362C99.8033 42.8362 99.8623 42.8948 99.9508 42.8948H100.305C100.344 42.8948 100.393 42.8755 100.452 42.8362L101.957 39.5603H102.016V43.78C102.016 43.78 102.016 43.8391 102.075 43.8391H102.636C102.636 43.8391 102.695 43.839 102.695 43.78V37.9373C102.695 37.9373 102.695 37.8782 102.636 37.8782H102.075V37.8489Z" fill="black"/>
<mask id="mask42_1_2637" style="mask-type:luminance" maskUnits="userSpaceOnUse" x="97" y="37" width="6" height="7">
<path d="M102.075 37.8489C102.036 37.8489 101.987 37.8686 101.928 37.908L100.157 41.9802H100.098L98.3278 37.908C98.3278 37.908 98.2688 37.8489 98.1803 37.8489H97.6196C97.6196 37.8489 97.5605 37.849 97.5605 37.908V43.7507C97.5605 43.7507 97.5606 43.8098 97.6196 43.8098H98.1803C98.1803 43.8098 98.2393 43.8097 98.2393 43.7507V39.5603H98.2983L99.8033 42.8362C99.8033 42.8362 99.8623 42.8948 99.9508 42.8948H100.305C100.344 42.8948 100.393 42.8755 100.452 42.8362L101.957 39.5603H102.016V43.78C102.016 43.78 102.016 43.8391 102.075 43.8391H102.636C102.636 43.8391 102.695 43.839 102.695 43.78V37.9373C102.695 37.9373 102.695 37.8782 102.636 37.8782H102.075V37.8489Z" fill="white"/>
</mask>
<g mask="url(#mask42_1_2637)">
<path d="M102.695 37.8489H97.5015V43.8396H102.695V37.8489Z" fill="black"/>
</g>
<path d="M104.849 40.5637V38.6458C104.849 38.6064 104.869 38.5867 104.908 38.5867H106.325C107.122 38.5867 107.476 38.9409 107.476 39.5901C107.476 40.2393 107.033 40.593 106.325 40.593L104.908 40.6521C104.869 40.6324 104.849 40.6031 104.849 40.5637ZM104.141 37.9373C104.141 37.9373 104.082 37.9373 104.082 37.9963V43.8391C104.082 43.8391 104.082 43.8982 104.141 43.8982H104.702C104.702 43.8982 104.761 43.8981 104.761 43.8391V41.4197C104.761 41.3803 104.781 41.3606 104.82 41.3606H106.177L107.387 43.78C107.446 43.78 107.446 43.8391 107.535 43.8391L108.243 43.8982C108.341 43.8982 108.361 43.8784 108.302 43.8391L107.004 41.2717C107.712 40.9766 108.155 40.4162 108.155 39.6194C108.155 38.6161 107.358 37.908 106.236 37.908H104.141V37.9373Z" fill="black"/>
<mask id="mask43_1_2637" style="mask-type:luminance" maskUnits="userSpaceOnUse" x="104" y="37" width="5" height="7">
<path d="M104.849 40.5637V38.6458C104.849 38.6064 104.869 38.5867 104.908 38.5867H106.325C107.122 38.5867 107.476 38.9409 107.476 39.5901C107.476 40.2393 107.033 40.593 106.325 40.593L104.908 40.6521C104.869 40.6324 104.849 40.6031 104.849 40.5637ZM104.141 37.9373C104.141 37.9373 104.082 37.9373 104.082 37.9963V43.8391C104.082 43.8391 104.082 43.8982 104.141 43.8982H104.702C104.702 43.8982 104.761 43.8981 104.761 43.8391V41.4197C104.761 41.3803 104.781 41.3606 104.82 41.3606H106.177L107.387 43.78C107.446 43.78 107.446 43.8391 107.535 43.8391L108.243 43.8982C108.341 43.8982 108.361 43.8784 108.302 43.8391L107.004 41.2717C107.712 40.9766 108.155 40.4162 108.155 39.6194C108.155 38.6161 107.358 37.908 106.236 37.908H104.141V37.9373Z" fill="white"/>
</mask>
<g mask="url(#mask43_1_2637)">
<path d="M108.42 37.9373H104.082V43.928H108.42V37.9373Z" fill="black"/>
</g>
<path d="M111.489 39.0588L112.404 41.7737H110.545L111.489 39.0588ZM111.135 37.8489C111.135 37.8489 111.076 37.849 111.076 37.908L108.951 43.7507C108.951 43.7507 108.951 43.8098 109.01 43.8098H109.571C109.61 43.8098 109.66 43.7901 109.719 43.7507L110.22 42.4524H112.64L113.142 43.7507C113.201 43.7507 113.201 43.8098 113.289 43.8098H113.85C113.889 43.8098 113.909 43.7901 113.909 43.7507L111.843 37.908C111.784 37.908 111.784 37.8489 111.696 37.8489H111.135Z" fill="black"/>
<mask id="mask44_1_2637" style="mask-type:luminance" maskUnits="userSpaceOnUse" x="108" y="37" width="6" height="7">
<path d="M111.489 39.0588L112.404 41.7737H110.545L111.489 39.0588ZM111.135 37.8489C111.135 37.8489 111.076 37.849 111.076 37.908L108.951 43.7507C108.951 43.7507 108.951 43.8098 109.01 43.8098H109.571C109.61 43.8098 109.66 43.7901 109.719 43.7507L110.22 42.4524H112.64L113.142 43.7507C113.201 43.7507 113.201 43.8098 113.289 43.8098H113.85C113.889 43.8098 113.909 43.7901 113.909 43.7507L111.843 37.908C111.784 37.908 111.784 37.8489 111.696 37.8489H111.135Z" fill="white"/>
</mask>
<g mask="url(#mask44_1_2637)">
<path d="M113.909 37.8489H108.922V43.8396H113.909V37.8489Z" fill="black"/>
</g>
<path d="M118.188 37.8489C118.188 37.8489 118.129 37.849 118.129 37.908V40.3279C118.129 40.3672 118.109 40.3865 118.07 40.3865H115.502C115.463 40.3865 115.443 40.3672 115.443 40.3279V37.908C115.443 37.908 115.443 37.8489 115.384 37.8489H114.765C114.765 37.8489 114.706 37.849 114.706 37.908H114.765V43.7507C114.765 43.7507 114.765 43.8098 114.824 43.8098H115.384C115.384 43.8098 115.443 43.8097 115.443 43.7507V41.1833C115.443 41.144 115.463 41.1243 115.502 41.1243H118.07C118.109 41.1243 118.129 41.144 118.129 41.1833V43.7507C118.129 43.7507 118.129 43.8098 118.188 43.8098H118.689C118.689 43.8098 118.749 43.8097 118.749 43.7507V37.908C118.749 37.908 118.748 37.8489 118.689 37.8489H118.188Z" fill="black"/>
<mask id="mask45_1_2637" style="mask-type:luminance" maskUnits="userSpaceOnUse" x="114" y="37" width="5" height="7">
<path d="M118.188 37.8489C118.188 37.8489 118.129 37.849 118.129 37.908V40.3279C118.129 40.3672 118.109 40.3865 118.07 40.3865H115.502C115.463 40.3865 115.443 40.3672 115.443 40.3279V37.908C115.443 37.908 115.443 37.8489 115.384 37.8489H114.765C114.765 37.8489 114.706 37.849 114.706 37.908H114.765V43.7507C114.765 43.7507 114.765 43.8098 114.824 43.8098H115.384C115.384 43.8098 115.443 43.8097 115.443 43.7507V41.1833C115.443 41.144 115.463 41.1243 115.502 41.1243H118.07C118.109 41.1243 118.129 41.144 118.129 41.1833V43.7507C118.129 43.7507 118.129 43.8098 118.188 43.8098H118.689C118.689 43.8098 118.749 43.8097 118.749 43.7507V37.908C118.749 37.908 118.748 37.8489 118.689 37.8489H118.188Z" fill="white"/>
</mask>
<g mask="url(#mask45_1_2637)">
<path d="M118.837 37.8489H114.706V43.8396H118.837V37.8489Z" fill="black"/>
</g>
<path d="M147.244 20.8455L140.016 22.9226V34.1238L147.244 32.5178V20.8455Z" fill="black"/>
<mask id="mask46_1_2637" style="mask-type:luminance" maskUnits="userSpaceOnUse" x="140" y="20" width="8" height="15">
<path d="M147.244 20.8455L140.016 22.9226V34.1238L147.244 32.5178V20.8455Z" fill="white"/>
</mask>
<g mask="url(#mask46_1_2637)">
<path d="M147.244 20.8455H140.016V34.1238H147.244V20.8455Z" fill="black"/>
</g>
<path d="M147.244 17.5642L140.016 19.6409V22.1472L147.244 20.0701V17.5642Z" fill="black"/>
<mask id="mask47_1_2637" style="mask-type:luminance" maskUnits="userSpaceOnUse" x="140" y="17" width="8" height="6">
<path d="M147.244 17.5642L140.016 19.6409V22.1472L147.244 20.0701V17.5642Z" fill="white"/>
</mask>
<g mask="url(#mask47_1_2637)">
<path d="M147.244 17.5642H140.016V22.1472H147.244V17.5642Z" fill="black"/>
</g>
<path d="M147.244 20.8455V32.5178L154.471 29.8176V22.5901L147.244 20.8455Z" fill="black"/>
<mask id="mask48_1_2637" style="mask-type:luminance" maskUnits="userSpaceOnUse" x="147" y="20" width="8" height="13">
<path d="M147.244 20.8455V32.5178L154.471 29.8176V22.5901L147.244 20.8455Z" fill="white"/>
</mask>
<g mask="url(#mask48_1_2637)">
<path d="M154.471 20.8455H147.244V32.5178H154.471V20.8455Z" fill="black"/>
</g>
<path d="M147.244 17.5642V20.0701L154.471 21.8425V19.4749L147.244 17.5642Z" fill="black"/>
<mask id="mask49_1_2637" style="mask-type:luminance" maskUnits="userSpaceOnUse" x="147" y="17" width="8" height="5">
<path d="M147.244 17.5642V20.0701L154.471 21.8425V19.4749L147.244 17.5642Z" fill="white"/>
</mask>
<g mask="url(#mask49_1_2637)">
<path d="M154.471 17.5642H147.244V21.8425H154.471V17.5642Z" fill="black"/>
</g>
<path d="M142.149 1.40601C135.087 13.5489 125.478 16.3319 125.381 16.4011L125.243 16.4705L125.215 20.5828H125.381L125.88 16.8025C126.987 15.861 135.752 15.2933 142.412 4.02271C148.975 15.2933 158.279 15.9026 159.442 16.8025L159.913 20.6243H160.079V16.512L159.941 16.4148C159.844 16.3456 149.598 13.5765 142.675 1.41968L142.412 0.948975L142.149 1.40601Z" fill="black"/>
<mask id="mask50_1_2637" style="mask-type:luminance" maskUnits="userSpaceOnUse" x="125" y="0" width="36" height="21">
<path d="M142.149 1.40601C135.087 13.5489 125.478 16.3319 125.381 16.4011L125.243 16.4705L125.215 20.5828H125.381L125.88 16.8025C126.987 15.861 135.752 15.2933 142.412 4.02271C148.975 15.2933 158.279 15.9026 159.442 16.8025L159.913 20.6243H160.079V16.512L159.941 16.4148C159.844 16.3456 149.598 13.5765 142.675 1.41968L142.412 0.948975L142.149 1.40601Z" fill="white"/>
</mask>
<g mask="url(#mask50_1_2637)">
<path d="M160.079 0.934814H125.215V20.6101H160.079V0.934814Z" fill="black"/>
</g>
<path d="M139.975 25.5256H131.072V27.1316H139.975V25.5256Z" fill="black"/>
<mask id="mask51_1_2637" style="mask-type:luminance" maskUnits="userSpaceOnUse" x="131" y="25" width="9" height="3">
<path d="M139.975 25.5256H131.072V27.1316H139.975V25.5256Z" fill="white"/>
</mask>
<g mask="url(#mask51_1_2637)">
<path d="M139.975 25.5256H131.072V27.1316H139.975V25.5256Z" fill="black"/>
</g>
<path d="M140.002 23.6838H131.473V25.2903H140.002V23.6838Z" fill="black"/>
<mask id="mask52_1_2637" style="mask-type:luminance" maskUnits="userSpaceOnUse" x="131" y="23" width="10" height="3">
<path d="M140.002 23.6838H131.473V25.2903H140.002V23.6838Z" fill="white"/>
</mask>
<g mask="url(#mask52_1_2637)">
<path d="M140.002 23.6838H131.473V25.2903H140.002V23.6838Z" fill="black"/>
</g>
<path d="M130.836 44.4392C129.396 45.7823 126.018 48.8562 126.018 48.8562C142.079 45.9762 152.588 38.2084 158.805 31.2854C143.519 42.3899 134.049 43.8992 130.836 44.4392Z" fill="black"/>
<mask id="mask53_1_2637" style="mask-type:luminance" maskUnits="userSpaceOnUse" x="126" y="31" width="33" height="18">
<path d="M130.836 44.4392C129.396 45.7823 126.018 48.8562 126.018 48.8562C142.079 45.9762 152.588 38.2084 158.805 31.2854C143.519 42.3899 134.049 43.8992 130.836 44.4392Z" fill="white"/>
</mask>
<g mask="url(#mask53_1_2637)">
<path d="M158.805 31.2854H126.018V48.8562H158.805V31.2854Z" fill="black"/>
</g>
<path d="M143.118 43.7053C147.673 45.8791 152.962 47.693 159.041 48.7869C159.041 48.7869 155.662 45.713 154.222 44.3699C152.754 44.1345 149.944 43.6637 145.859 42.196C145.402 42.4591 144.558 42.9576 143.118 43.7053Z" fill="black"/>
<mask id="mask54_1_2637" style="mask-type:luminance" maskUnits="userSpaceOnUse" x="143" y="42" width="17" height="7">
<path d="M143.118 43.7053C147.673 45.8791 152.962 47.693 159.041 48.7869C159.041 48.7869 155.662 45.713 154.222 44.3699C152.754 44.1345 149.944 43.6637 145.859 42.196C145.402 42.4591 144.558 42.9576 143.118 43.7053Z" fill="white"/>
</mask>
<g mask="url(#mask54_1_2637)">
<path d="M159.041 42.196H143.118V48.7869H159.041V42.196Z" fill="black"/>
</g>
<path d="M139.504 41.7947C140.113 41.5593 141.11 41.1576 142.176 40.6868C137.856 38.7761 132.567 35.7992 126.253 31.2161C129.466 34.8022 133.827 38.5825 139.504 41.7947Z" fill="black"/>
<mask id="mask55_1_2637" style="mask-type:luminance" maskUnits="userSpaceOnUse" x="126" y="31" width="17" height="11">
<path d="M139.504 41.7947C140.113 41.5593 141.11 41.1576 142.176 40.6868C137.856 38.7761 132.567 35.7992 126.253 31.2161C129.466 34.8022 133.827 38.5825 139.504 41.7947Z" fill="white"/>
</mask>
<g mask="url(#mask55_1_2637)">
<path d="M142.176 31.2161H126.253V41.7947H142.176V31.2161Z" fill="black"/>
</g>
<path d="M130.739 27.3669V29.5408C135.392 31.2162 140.002 31.9498 139.975 31.9221V27.3669H130.739Z" fill="black"/>
<mask id="mask56_1_2637" style="mask-type:luminance" maskUnits="userSpaceOnUse" x="130" y="27" width="10" height="5">
<path d="M130.739 27.3669V29.5408C135.392 31.2162 140.002 31.9498 139.975 31.9221V27.3669H130.739Z" fill="white"/>
</mask>
<g mask="url(#mask56_1_2637)">
<path d="M140.002 27.3669H130.739V31.95H140.002V27.3669Z" fill="black"/>
</g>
<path d="M138.535 13.5212C138.438 13.5489 138.369 13.6182 138.369 13.7151C138.369 13.7843 138.438 13.8811 138.507 13.8811L138.479 14.1443C138.41 14.172 138.313 14.2827 138.313 14.3796C138.313 14.4488 138.382 14.5457 138.452 14.5872L138.424 14.8503C138.327 14.878 138.258 14.9888 138.258 15.0857C138.258 15.1826 138.327 15.2518 138.396 15.321V15.4177C138.396 15.4177 138.022 16.6223 134.81 18.3669C132.705 19.5023 132.069 21.3161 131.861 22.4099C131.764 23.0468 131.792 23.4485 131.792 23.4485H139.961V19.5715C139.961 19.5715 141.373 19.198 142.841 18.741C140.265 17.2041 138.756 15.4592 138.756 15.4592V15.3625C138.825 15.2933 138.895 15.2241 138.895 15.1272C138.895 14.9887 138.826 14.9194 138.729 14.864L138.701 14.6008C138.77 14.5731 138.839 14.4625 138.839 14.3933C138.839 14.2964 138.77 14.1996 138.673 14.158L138.645 13.8948C138.715 13.8671 138.812 13.798 138.812 13.7288C138.812 13.6319 138.742 13.5626 138.645 13.5349L138.618 13.1331L138.535 13.5212Z" fill="black"/>
<mask id="mask57_1_2637" style="mask-type:luminance" maskUnits="userSpaceOnUse" x="131" y="13" width="12" height="11">
<path d="M138.535 13.5212C138.438 13.5489 138.369 13.6182 138.369 13.7151C138.369 13.7843 138.438 13.8811 138.507 13.8811L138.479 14.1443C138.41 14.172 138.313 14.2827 138.313 14.3796C138.313 14.4488 138.382 14.5457 138.452 14.5872L138.424 14.8503C138.327 14.878 138.258 14.9888 138.258 15.0857C138.258 15.1826 138.327 15.2518 138.396 15.321V15.4177C138.396 15.4177 138.022 16.6223 134.81 18.3669C132.705 19.5023 132.069 21.3161 131.861 22.4099C131.764 23.0468 131.792 23.4485 131.792 23.4485H139.961V19.5715C139.961 19.5715 141.373 19.198 142.841 18.741C140.265 17.2041 138.756 15.4592 138.756 15.4592V15.3625C138.825 15.2933 138.895 15.2241 138.895 15.1272C138.895 14.9887 138.826 14.9194 138.729 14.864L138.701 14.6008C138.77 14.5731 138.839 14.4625 138.839 14.3933C138.839 14.2964 138.77 14.1996 138.673 14.158L138.645 13.8948C138.715 13.8671 138.812 13.798 138.812 13.7288C138.812 13.6319 138.742 13.5626 138.645 13.5349L138.618 13.1331L138.535 13.5212Z" fill="white"/>
</mask>
<g mask="url(#mask57_1_2637)">
<path d="M142.827 13.1194H131.75V23.4626H142.827V13.1194Z" fill="black"/>
</g>
<path d="M125.256 27.2981C125.658 27.6304 126.392 28.198 126.392 28.198C132.886 32.9195 138.299 35.8546 142.661 37.8069C146.981 35.8961 152.367 32.9606 158.75 28.3083C159.124 28.0452 159.581 27.6719 160.051 27.2981C158.68 26.9935 156.341 27.6023 156.341 27.6023C156.341 27.6023 153.931 29.8729 152.021 30.2468C150.151 30.6483 147.77 30.5794 145.804 30.884C143.824 31.1886 142.661 33.1545 142.661 33.1545C142.661 33.1545 141.525 31.1747 139.518 30.884C137.538 30.5794 135.17 30.6483 133.287 30.2468C131.418 29.8453 128.967 27.6023 128.967 27.6023C128.967 27.6023 127.472 27.2009 126.198 27.2009C125.852 27.2009 125.533 27.2289 125.256 27.2981Z" fill="black"/>
<mask id="mask58_1_2637" style="mask-type:luminance" maskUnits="userSpaceOnUse" x="125" y="27" width="36" height="11">
<path d="M125.256 27.2981C125.658 27.6304 126.392 28.198 126.392 28.198C132.886 32.9195 138.299 35.8546 142.661 37.8069C146.981 35.8961 152.367 32.9606 158.75 28.3083C159.124 28.0452 159.581 27.6719 160.051 27.2981C158.68 26.9935 156.341 27.6023 156.341 27.6023C156.341 27.6023 153.931 29.8729 152.021 30.2468C150.151 30.6483 147.77 30.5794 145.804 30.884C143.824 31.1886 142.661 33.1545 142.661 33.1545C142.661 33.1545 141.525 31.1747 139.518 30.884C137.538 30.5794 135.17 30.6483 133.287 30.2468C131.418 29.8453 128.967 27.6023 128.967 27.6023C128.967 27.6023 127.472 27.2009 126.198 27.2009C125.852 27.2009 125.533 27.2289 125.256 27.2981Z" fill="white"/>
</mask>
<g mask="url(#mask58_1_2637)">
<path d="M160.051 27.0071H125.256V37.8206H160.051V27.0071Z" fill="black"/>
</g>
</svg>
