<svg width="148" height="49" viewBox="0 0 148 49" fill="none" xmlns="http://www.w3.org/2000/svg">
<path d="M69.222 0.803467L67.5966 11.9082L57.2018 0.803467H69.222Z" fill="#9168EA"/>
<path d="M0.982056 14.562H9.53479L12.5428 36.3516L22.0553 15.839C22.4164 15.0603 23.1967 14.562 24.0551 14.562H30.4523L34.1779 36.3516L42.991 15.8942C43.3393 15.0857 44.1352 14.562 45.0155 14.562H52.8525L37.5981 48.0292H28.2284L24.7283 28.2622L15.4418 48.0292H6.43884L0.982056 14.562Z" fill="white"/>
<path d="M67.2075 14.562L62.309 48.0292H52.3925L57.015 16.4471C57.1735 15.3645 58.1019 14.562 59.196 14.562H67.2075Z" fill="white"/>
<path d="M99.3782 2.68852L97.0492 18.6069C95.3813 15.2784 91.689 13.7794 88.0996 13.7794C78.9002 13.7794 71.2695 21.3476 69.8073 31.3296C68.301 41.6349 74.2968 48.81 82.7761 48.81C86.1046 48.81 91.149 47.311 94.1469 43.3322L93.4598 48.0274H102.659L109.566 0.803223H101.559C100.465 0.803223 99.5366 1.60592 99.3782 2.68852ZM95.4658 31.1973C94.6722 36.6126 90.7118 40.0698 86.2737 40.0698C82.034 40.0698 79.0251 36.5465 79.8077 31.1973C80.5719 25.9767 84.6021 22.5196 88.8418 22.5196C93.2798 22.5196 96.241 25.9143 95.4658 31.1973Z" fill="white"/>
<path d="M137.677 16.4436L137.321 18.8599C137.321 18.8599 134.501 13.7795 128.408 13.7795C119.209 13.7795 111.578 21.3477 110.116 31.3297C108.61 41.635 114.606 48.8101 123.085 48.8101C126.413 48.8101 131.458 47.3111 134.456 43.3323L133.769 48.0275H142.968L147.865 14.5583H139.858C138.764 14.5583 137.836 15.361 137.677 16.4436ZM135.775 31.1974C134.981 36.6127 131.021 40.0699 126.583 40.0699C122.343 40.0699 119.334 36.5466 120.116 31.1974C120.881 25.9768 124.911 22.5197 129.151 22.5197C133.589 22.5197 136.55 25.9144 135.775 31.1974Z" fill="white"/>
</svg>
