<svg width="130" height="60" viewBox="0 0 130 60" fill="none" xmlns="http://www.w3.org/2000/svg">
<path d="M93.4274 16.3157V35.0852L83.0436 40.1023V21.3167L93.4274 16.3157Z" fill="black"/>
<path d="M120.257 22.8025V37.7634L123.067 36.4236V24.157L120.257 22.8025Z" fill="black"/>
<path d="M102.947 0.409912L95.3336 5.40259V15.5295L100.641 18.0818V48.1086L102.947 48.7893V0.409912Z" fill="black"/>
<path d="M118.002 15.3538V21.6897L115.233 20.3611V37.803L108.081 34.4143V21.3523L112.695 19.1326V12.8079L118.002 15.3538Z" fill="black"/>
<path d="M104.017 55.1013L114.275 59.3948H129.732L109.175 52.9412L104.017 55.1013Z" fill="black"/>
<path d="M86.3627 46.2878H82.9594L96.9026 52.1233L101.635 50.7424L86.3627 46.2878Z" fill="black"/>
<path d="M119.658 46.2878L104.645 50.6667L103.01 51.1438L98.0317 52.5955L97.5595 52.7341L76.3286 59.3948H91.7454L102.297 54.9788L103.01 54.6799L107.989 52.5955L109.39 52.009L123.062 46.2878H119.658Z" fill="black"/>
<path d="M50.9694 56.7336C49.1663 56.7336 47.7079 55.2361 47.7079 52.7566C47.7079 50.2771 49.1685 48.78 50.9694 48.78C52.7703 48.78 54.231 50.3094 54.231 52.7566C54.231 55.2038 52.7703 56.7336 50.9694 56.7336ZM50.9457 46.2253C47.29 46.2253 44.3281 48.5927 44.3281 52.7869C44.3281 56.9811 47.29 59.3489 50.9457 59.3489C54.6014 59.3489 57.5634 56.8282 57.5634 52.7869C57.5634 48.7456 54.6014 46.2253 50.9457 46.2253Z" fill="black"/>
<path d="M22.5275 56.7336C20.7244 56.7336 19.2659 55.2361 19.2659 52.7566C19.2659 50.2771 20.7266 48.78 22.5275 48.78C24.3284 48.78 25.7889 50.3094 25.7889 52.7566C25.7889 55.2038 24.3284 56.7336 22.5275 56.7336ZM22.5038 46.2253C18.8481 46.2253 15.8862 48.5927 15.8862 52.7869C15.8862 56.9811 18.8503 59.3489 22.5038 59.3489C26.1573 59.3489 29.1215 56.8282 29.1215 52.7869C29.1215 48.7456 26.1595 46.2253 22.5038 46.2253Z" fill="black"/>
<path d="M11.9202 46.2532L7.40924 51.2986H7.40497L2.89404 46.2532L0.724731 46.2771C0.724731 46.2771 0.752747 55.4753 0.752747 59.0232V59.3269H3.76001V51.7849L7.40063 55.6453V55.6604L7.40717 55.6541L7.41364 55.6604V55.6453L11.0543 51.7849V59.3269H14.0615V59.0232C14.0615 55.4752 14.0895 46.2771 14.0895 46.2771L11.9202 46.2532Z" fill="black"/>
<path d="M70.3185 46.2747H67.3134L67.322 53.8445L61.2687 46.2747H59.1016L59.1296 59.325H62.1348V51.783L68.1234 59.325H70.3466L70.3185 46.2747Z" fill="black"/>
<path d="M38.8456 54.5039C38.3351 55.9537 37.1136 56.7788 35.5475 56.7358C35.1641 56.725 34.6191 56.671 34.2357 56.6171V48.832C35.0952 48.8105 35.9611 48.8255 36.7711 49.1142C37.8784 49.5084 38.5936 50.2734 38.9016 51.3828C39.1903 52.4233 39.2053 53.4721 38.8434 54.5039M39.7568 47.3393C38.5784 46.6069 37.2644 46.2942 35.8922 46.2705C34.9422 46.2533 33.9837 46.3224 33.0358 46.415C32.3615 46.4796 31.7001 46.6474 31.0388 46.768V58.8466C31.9974 58.9823 32.9454 59.1465 33.8975 59.2456C35.4205 59.405 36.9371 59.3854 38.4127 58.9072C40.2265 58.3191 41.5061 57.1731 42.1309 55.3872C42.6501 53.9073 42.6607 52.3993 42.2902 50.8828C41.924 49.3727 41.1012 48.1725 39.7548 47.3388" fill="black"/>
<path d="M58.7612 33.0608C58.3282 32.2013 58.1817 31.2774 58.186 30.0667C58.1968 29.1533 58.4036 28.0244 59.1274 27.0442C60.6957 24.9223 64.0455 25.0707 65.4307 27.3196C66.1093 28.4226 66.2881 29.6314 66.1998 30.8894C66.1459 31.7037 65.9735 32.4921 65.5793 33.2224C64.8576 34.5602 63.7245 35.2645 62.1821 35.2537C60.5815 35.2429 59.4613 34.446 58.7612 33.0608ZM65.3295 37.9099C67.5289 37.1452 69.0174 35.6522 69.7994 33.5066C70.4392 31.7552 70.4974 29.9545 70.0881 28.1536C69.612 26.0511 68.4531 24.4139 66.4927 23.3713C65.1571 22.6583 63.7139 22.4016 62.2318 22.3801C61.1245 22.3952 60.0603 22.5332 59.0327 22.8972C56.8483 23.6727 55.3383 25.1249 54.5822 27.2747C54.356 27.921 54.2074 28.5715 54.1234 29.22C54.1212 29.2265 54.1125 29.2353 54.1125 29.2439C54.0263 29.8578 54.0436 30.3162 53.8992 30.7341C53.7527 31.152 53.5696 31.4841 53.3499 31.7361C53.1302 31.9838 52.8867 32.1626 52.6218 32.2703C52.3525 32.3759 52.0855 32.4729 51.8162 32.4729H42.5638C42.5013 32.4729 42.4496 32.4686 42.3915 32.4729H36.8574V29.6917C36.8574 28.5737 36.7368 27.5441 36.4998 26.5984C36.2607 25.6549 35.8491 24.8747 35.261 24.2629C34.563 23.5434 33.7444 23.0242 32.8074 22.7097C31.8725 22.3952 30.5886 22.2361 29.3391 22.2361H24.546V26.0164H29.9144C30.4099 26.0164 30.8644 26.1114 31.278 26.301C31.6916 26.4906 32.0168 26.7383 32.2559 27.0442C32.5123 27.3501 32.6997 27.7056 32.8203 28.1106C32.9388 28.5156 32.9991 28.9874 32.9991 29.5281V32.4729H20.9355V36.2512H36.9586V36.2341H42.3463C42.4174 36.2406 42.4841 36.2512 42.5638 36.2512H50.8187C51.1591 36.2512 51.5231 36.2275 51.9152 36.178C52.3051 36.1306 52.6821 36.0403 53.0483 35.9089C53.4145 35.7753 53.7678 35.5876 54.1125 35.3464C54.4487 35.1137 54.7329 34.8079 54.9742 34.4353C55.795 36.0897 57.1456 37.2596 58.981 37.8972C61.0835 38.6296 63.2184 38.6445 65.3295 37.9099Z" fill="black"/>
<path d="M11.1016 18.509H7.30151V22.2361H11.1016V18.509Z" fill="black"/>
<path d="M13.9343 22.2683V30.1917C13.9343 31.0017 13.8481 31.691 13.6715 32.2576C13.497 32.8263 13.1977 33.2891 12.7755 33.6467C12.2994 34.0431 11.7006 34.3125 10.9854 34.4568C10.4447 34.5645 9.86303 34.6462 9.25763 34.6462C8.65223 34.6462 8.07067 34.5667 7.52997 34.4568C6.81477 34.3125 6.21807 34.0431 5.73987 33.6467C5.31767 33.287 5.01813 32.8242 4.84363 32.2576C4.66913 31.691 4.58081 31.0017 4.58081 30.1917V22.2683H0.724854V30.6501C0.724854 31.7487 0.862728 32.7957 1.13843 33.7952C1.41413 34.7948 1.89022 35.6089 2.57092 36.238C2.99312 36.6344 3.43905 36.9728 3.90875 37.2507C4.37625 37.5307 4.89325 37.7593 5.46405 37.9402C6.03275 38.119 6.65312 38.2504 7.32312 38.3323C7.81432 38.3905 8.36145 38.4204 8.93665 38.4377C8.93665 38.4377 9.14993 38.4399 9.25543 38.4377C9.36103 38.4399 9.57855 38.4377 9.57855 38.4377C10.1538 38.4205 10.7008 38.3927 11.192 38.3323C11.862 38.2504 12.4824 38.119 13.0511 37.9402C13.6198 37.7592 14.139 37.5307 14.6086 37.2507C15.0761 36.9728 15.522 36.6344 15.9442 36.238C16.6228 35.609 17.101 34.7926 17.3767 33.7952C17.6503 32.7956 17.7883 31.7465 17.7883 30.6501V22.2683H13.9323H13.9343Z" fill="black"/>
</svg>
