<svg width="120" height="78" viewBox="0 0 120 78" fill="none" xmlns="http://www.w3.org/2000/svg">
<path d="M56.7365 14.7078H70.7181V32.2439H56.7365V35.7532H74.2382V11.2014H56.7365" fill="black"/>
<path d="M63.6836 21.7214H49.7019V4.18774H63.6836V0.676025H46.182V25.2278H63.6836" fill="black"/>
<path d="M4.36938 48.4319C4.63428 48.4319 4.85935 48.3365 5.05005 48.1458C5.24075 47.9578 5.33606 47.73 5.33606 47.4651C5.33606 47.2002 5.24075 46.9781 5.05005 46.7927C4.85935 46.6099 4.63428 46.5173 4.36938 46.5173C4.10718 46.5173 3.88214 46.61 3.69934 46.7927C3.51394 46.9781 3.42395 47.2003 3.42395 47.4651C3.42395 47.7299 3.51664 47.9551 3.69934 48.1458C3.88214 48.3365 4.10718 48.4319 4.36938 48.4319Z" fill="black"/>
<path d="M2.15796 48.4319C2.42016 48.4319 2.64792 48.3365 2.83862 48.1458C3.02932 47.9578 3.12463 47.73 3.12463 47.4651C3.12463 47.2002 3.02932 46.9781 2.83862 46.7927C2.64792 46.6099 2.42016 46.5173 2.15796 46.5173C1.89576 46.5173 1.67059 46.61 1.48779 46.7927C1.30239 46.9781 1.2124 47.2003 1.2124 47.4651C1.2124 47.7299 1.30239 47.9551 1.48779 48.1458C1.67319 48.3365 1.89576 48.4319 2.15796 48.4319Z" fill="black"/>
<path d="M10.1115 57.5085C9.84925 57.5085 9.62136 57.604 9.43066 57.7947C9.23996 57.9854 9.14465 58.2131 9.14465 58.4753C9.14465 58.7375 9.23996 58.9623 9.43066 59.1477C9.62136 59.3331 9.84925 59.4236 10.1115 59.4236C10.3737 59.4236 10.5987 59.3305 10.7841 59.1477C10.9669 58.9623 11.0594 58.7401 11.0594 58.4753C11.0594 58.2105 10.9668 57.9854 10.7841 57.7947C10.5961 57.604 10.3737 57.5085 10.1115 57.5085Z" fill="black"/>
<path d="M4.07275 54.0759H3.10608C2.71148 54.0759 2.51282 53.872 2.51282 53.4641V51.9836C2.51282 51.785 2.56585 51.6233 2.67175 51.4988C2.77765 51.3743 2.92328 51.3108 3.10608 51.3108H4.07275V54.0759ZM9.16333 53.4246C9.16333 53.859 8.94614 54.0759 8.51184 54.0759H5.948V49.4197H3.12732C2.43072 49.4197 1.85601 49.6236 1.41101 50.0315C0.883911 50.5056 0.621704 51.144 0.621704 51.9465V53.427C0.621704 54.1262 0.81768 54.7035 1.21228 55.1643C1.68638 55.7046 2.33787 55.9724 3.16687 55.9724H8.55396C9.23726 55.9724 9.80936 55.7685 10.2703 55.3606C10.7947 54.8865 11.0596 54.2532 11.0596 53.4666V49.4226H9.16589" fill="black"/>
<path d="M7.8999 57.5085C7.635 57.5085 7.40994 57.604 7.21924 57.7947C7.02854 57.9854 6.93323 58.2131 6.93323 58.4753C6.93323 58.7375 7.02854 58.9623 7.21924 59.1477C7.40994 59.3331 7.635 59.4236 7.8999 59.4236C8.1621 59.4236 8.38723 59.3305 8.57263 59.1477C8.75543 58.9623 8.84802 58.7401 8.84802 58.4753C8.84802 58.2105 8.75533 57.9854 8.57263 57.7947C8.38723 57.604 8.1647 57.5085 7.8999 57.5085Z" fill="black"/>
<path d="M15.1226 49.4197H14.0181V51.3137H14.9636C15.4907 51.3137 15.8986 51.4645 16.1873 51.7664C16.4892 52.071 16.6401 52.4897 16.6401 53.03C16.6401 53.4114 16.5792 53.6813 16.4521 53.8376C16.3276 53.9939 16.1131 54.0735 15.8112 54.0735H12.8899V55.967H15.9675C16.7435 55.967 17.3606 55.7365 17.8215 55.2756C18.3221 54.775 18.571 54.0601 18.571 53.1252C18.571 52.1505 18.3539 51.3478 17.9196 50.7175C17.3316 49.8541 16.3992 49.4197 15.1226 49.4197Z" fill="black"/>
<path d="M30.7489 53.0881C30.3145 52.5875 29.8934 52.209 29.4855 51.9441C29.8537 51.4435 30.2748 51.1946 30.7489 51.1946C31.2495 51.1946 31.6627 51.4436 31.9911 51.9441C31.5461 52.246 31.1303 52.6299 30.7489 53.0881ZM23.5262 54.0759H22.5808C22.1862 54.0759 21.9902 53.8589 21.9902 53.4246V51.9255C21.9902 51.5176 22.1862 51.3137 22.5808 51.3137H23.5262V54.0759ZM49.5139 53.4246C49.5139 53.859 49.302 54.0759 48.8809 54.0759H47.3236V49.4197L45.4299 49.8064V54.0759H43.8699V49.4202L41.9762 49.8069V54.0759H40.3977V49.4202L38.5251 49.8069V54.0764H32.4865C33.04 53.3798 33.5856 52.8607 34.1233 52.5164V52.3572C34.1233 51.515 33.8082 50.8052 33.1779 50.2278C32.5052 49.6213 31.6973 49.3196 30.7517 49.3196C29.936 49.3196 29.213 49.5501 28.58 50.011C27.7775 50.5884 27.3774 51.3536 27.3774 52.2991V52.5164C27.878 52.8581 28.4237 53.3772 29.0143 54.0764H25.4229V49.4202H22.6418C21.9055 49.4202 21.307 49.6372 20.8462 50.0715C20.3324 50.5588 20.0754 51.1842 20.0754 51.947V53.4646C20.0754 54.1108 20.2741 54.6614 20.6661 55.1223C21.1534 55.6891 21.8103 55.97 22.6393 55.97H23.5477V56.1077C23.5477 56.6215 23.304 57.0162 22.8167 57.2917C22.3161 57.5936 21.6249 57.7444 20.7455 57.7444H20.568L21.7704 59.4211C23.0338 59.3681 23.9607 59.0607 24.5514 58.4939C25.1288 57.9536 25.42 57.1378 25.42 56.0466V55.967H29.6631C30.0577 55.967 30.4206 55.8558 30.749 55.6306C31.0907 55.8557 31.4536 55.967 31.835 55.967H48.8624C49.5987 55.967 50.1973 55.737 50.6581 55.2761C51.1454 54.802 51.3892 54.1981 51.3892 53.4592V46.7502H49.5166" fill="black"/>
<path d="M66.0488 48.4319C66.311 48.4319 66.5362 48.3365 66.7216 48.1458C66.907 47.9551 66.9969 47.7273 66.9969 47.4651C66.9969 47.2029 66.9044 46.9781 66.7216 46.7927C66.5362 46.6099 66.3136 46.5173 66.0488 46.5173C65.784 46.5173 65.5587 46.61 65.368 46.7927C65.1773 46.9781 65.0822 47.2003 65.0822 47.4651C65.0822 47.7299 65.1773 47.9551 65.368 48.1458C65.5587 48.3365 65.7839 48.4319 66.0488 48.4319Z" fill="black"/>
<path d="M63.8372 48.4319C64.0994 48.4319 64.3245 48.3365 64.5073 48.1458C64.6927 47.9551 64.7828 47.7273 64.7828 47.4651C64.7828 47.2029 64.6928 46.9781 64.5073 46.7927C64.3245 46.6099 64.0994 46.5173 63.8372 46.5173C63.575 46.5173 63.3472 46.61 63.1565 46.7927C62.9658 46.9781 62.8705 47.2003 62.8705 47.4651C62.8705 47.7299 62.9658 47.9551 63.1565 48.1458C63.3472 48.3365 63.575 48.4319 63.8372 48.4319Z" fill="black"/>
<path d="M68.5146 53.366C68.5146 53.8401 68.3107 54.0759 67.9028 54.0759H61.9648C61.5437 54.0759 61.3344 53.8401 61.3344 53.366V50.6223L59.4592 51.8459V53.4641C59.4592 54.1872 59.6684 54.7724 60.0896 55.22C60.5504 55.7206 61.1939 55.9695 62.0229 55.9695H67.9028C68.602 55.9695 69.1795 55.7656 69.6403 55.3577C70.1541 54.8969 70.4109 54.2666 70.4109 53.4641V49.4197H68.5172" fill="black"/>
<path d="M78.1818 53.4641V51.9465C78.1818 51.7611 78.2375 51.6104 78.3488 51.4939C78.4601 51.3774 78.6083 51.3162 78.7937 51.3162H81.6541V49.4226H78.8519C78.1553 49.4226 77.57 49.6265 77.0959 50.0344C76.5556 50.5085 76.2881 51.1465 76.2881 51.949V53.4666C76.2881 53.7553 76.3199 53.9592 76.3861 54.0784H74.7678C74.3467 54.0784 74.1375 53.8692 74.1375 53.448V46.7605H72.2649V53.5276C72.2649 54.1474 72.4477 54.6849 72.8158 55.1458C73.2634 55.6993 73.854 55.9749 74.5903 55.9749H82.5624V54.0813H78.7935C78.3856 54.076 78.1818 53.872 78.1818 53.4641Z" fill="black"/>
<path d="M94.0254 48.4319C94.2876 48.4319 94.5128 48.3365 94.6956 48.1458C94.881 47.9551 94.9709 47.7273 94.9709 47.4651C94.9709 47.2029 94.8809 46.9781 94.6956 46.7927C94.5102 46.6099 94.2876 46.5173 94.0254 46.5173C93.7632 46.5173 93.5354 46.61 93.3447 46.7927C93.154 46.9781 93.0587 47.2003 93.0587 47.4651C93.0587 47.7299 93.154 47.9551 93.3447 48.1458C93.5354 48.3365 93.7632 48.4319 94.0254 48.4319Z" fill="black"/>
<path d="M94.8146 53.366C94.8146 53.8401 94.6027 54.0759 94.1842 54.0759H93.2572V51.9836C93.2572 51.5386 93.4558 51.3132 93.8505 51.3132H94.8173V53.366H94.8146ZM87.5364 54.0759H86.5883C86.1937 54.0759 85.9976 53.8589 85.9976 53.4246V51.9255C85.9976 51.5176 86.1963 51.3137 86.5883 51.3137H87.5364V54.0759ZM92.0522 50.1296C91.5914 50.6037 91.3608 51.2078 91.3608 51.9441V54.0759H89.4275V49.4202H86.6439C85.9076 49.4202 85.3089 49.6372 84.8481 50.0715C84.3343 50.5588 84.0775 51.1837 84.0775 51.9465V53.467C84.0775 54.1106 84.2761 54.6639 84.6681 55.1248C85.1554 55.6916 85.8124 55.9724 86.6414 55.9724H87.5497V56.1101C87.5497 56.6239 87.306 57.0187 86.8187 57.2942C86.3181 57.5961 85.627 57.7468 84.7476 57.7468H84.5699L85.7725 59.4236C87.0359 59.3706 87.9626 59.0605 88.5533 58.4963C89.1333 57.956 89.4221 57.143 89.4221 56.0491V55.9695H94.1761C94.8859 55.9695 95.4634 55.7656 95.911 55.3577C96.4354 54.8969 96.7003 54.2666 96.7003 53.4641V49.4197H93.8981C93.13 49.4197 92.513 49.6555 92.0522 50.1296Z" fill="black"/>
<path d="M109.85 55.0823C109.85 55.5299 109.586 55.7551 109.061 55.7551C108.537 55.7551 108.272 55.5325 108.272 55.0823V51.8669C108.272 51.4193 108.534 51.1946 109.061 51.1946C109.588 51.1946 109.85 51.4167 109.85 51.8669V55.0823ZM113.916 53.4246C113.916 53.859 113.707 54.0759 113.286 54.0759H111.726V51.8669C111.726 51.1438 111.508 50.5536 111.074 50.0901C110.576 49.5789 109.903 49.3191 109.061 49.3191C108.365 49.3191 107.779 49.4912 107.305 49.8328C106.699 50.2936 106.397 50.9693 106.397 51.8645V54.0735H104.225V53.0085C104.225 52.063 103.981 51.2657 103.494 50.6194C102.888 49.8169 101.995 49.4172 100.811 49.4172H99.6667V51.3108H100.652C101.77 51.3108 102.329 51.8431 102.329 52.9104V54.0735H98.5413V55.967H106.513C106.686 56.4782 106.987 56.8806 107.422 57.1692C107.88 57.4711 108.428 57.6223 109.058 57.6223C109.691 57.6223 110.229 57.4742 110.677 57.1775C111.124 56.8808 111.426 56.4752 111.585 55.9641H113.262C113.998 55.9641 114.597 55.7341 115.057 55.2732C115.545 54.7991 115.788 54.195 115.788 53.4587V46.7498H113.913" fill="black"/>
<path d="M117.468 46.7551V56.8333L119.52 55.9695V46.7551H117.468Z" fill="black"/>
<path d="M53.153 56.8333L55.2056 55.97V46.7556H53.153V56.8333Z" fill="black"/>
<path d="M0.658813 76.6335L0.955444 74.8088C1.77384 75.1664 2.58955 75.344 3.39465 75.344C4.30835 75.344 4.76404 75.0076 4.76404 74.3323C4.76404 74.0542 4.65807 73.8261 4.44617 73.6487C4.23427 73.4712 3.81319 73.249 3.17749 72.9841C2.30609 72.6265 1.69696 72.2902 1.35266 71.9724C0.862661 71.5089 0.619141 70.9074 0.619141 70.1658C0.619141 69.2282 0.976687 68.5398 1.68909 68.1028C2.24529 67.7452 3.00538 67.5676 3.96948 67.5676C4.85678 67.5676 5.65664 67.7399 6.36914 68.0842L6.03271 69.8694C5.24081 69.5118 4.53105 69.3342 3.91125 69.3342C3.06375 69.3342 2.64246 69.6042 2.64246 70.1472C2.64246 70.3194 2.73253 70.4758 2.91003 70.6135C3.09013 70.7512 3.45564 70.9392 4.01184 71.1775C4.93884 71.5615 5.58501 71.9245 5.95581 72.2688C6.49611 72.772 6.76892 73.3919 6.76892 74.1335C6.76892 75.1638 6.44578 75.937 5.79688 76.4534C5.22748 76.9037 4.44081 77.1262 3.43701 77.1262C2.33791 77.1288 1.41361 76.9645 0.658813 76.6335Z" fill="black"/>
<path d="M13.4513 73.5984L12.519 70.3459L11.5867 73.5984H13.4513ZM16.6083 76.991H14.4259L13.9094 75.2644H11.1337L10.6172 76.991H8.45605L11.47 67.7292H13.5729" fill="black"/>
<path d="M24.0455 73.6594V68.5955L26.1273 67.7268V73.8367C26.1273 74.7346 25.8572 75.4762 25.3142 76.0588C24.668 76.7739 23.6827 77.1292 22.3584 77.1292C20.8779 77.1292 19.8184 76.6869 19.1854 75.7996C18.7881 75.2434 18.5895 74.5889 18.5895 73.8367V68.5955L20.6527 67.7263V73.6565C20.6527 74.1571 20.8037 74.5623 21.1083 74.8669C21.3996 75.1847 21.8155 75.344 22.3584 75.344C22.9676 75.344 23.4178 75.1451 23.7065 74.7478C23.9316 74.4591 24.0455 74.0964 24.0455 73.6594Z" fill="black"/>
<path d="M34.7668 73.4817C34.7668 74.5517 34.2053 75.0896 33.0823 75.0896H30.8496V69.636H33.0823C34.2053 69.636 34.7668 70.1712 34.7668 71.2439V73.4817ZM35.9374 68.9397C35.3282 68.1345 34.4277 67.7292 33.2385 67.7292H28.9637V76.9915H33.2385C34.4277 76.9915 35.3282 76.5888 35.9374 75.781C36.4247 75.1321 36.671 74.3346 36.671 73.3811V71.3391C36.671 70.3883 36.4248 69.5886 35.9374 68.9397Z" fill="black"/>
<path d="M41.7166 76.991H39.6534V68.5955L41.7166 67.7263V76.991Z" fill="black"/>
<path d="M60.8179 73.5984L59.8856 70.3459L58.9532 73.5984H60.8179ZM63.9697 76.991H61.7874L61.2708 75.2644H58.4951L57.9786 76.991H55.8174L58.8341 67.7292H60.937" fill="black"/>
<path d="M69.1661 76.991H67.1241V73.3416L64.2478 67.7263H66.4514L68.1359 71.4158L69.8416 67.7263H72.024L69.1663 73.3416" fill="black"/>
<path d="M83.7861 76.991H81.9612V69.8323L80.0356 76.991H77.8348L75.9305 69.8323V76.991H74.1056V67.7292H77.1407L78.9471 75.0471L80.9706 67.7292H83.7887" fill="black"/>
<path d="M92.2535 76.991H86.6412V67.7292H92.55L92.2535 69.4558H88.7018V71.4001H91.9569L91.6788 73.1267H88.7045V75.2693H92.5529" fill="black"/>
<path d="M102.567 76.991H100.822L96.9149 71.1404V76.991H95.0503V67.7292H96.7957L100.702 73.5798V67.7292H102.567" fill="black"/>
<path d="M109.331 76.991H107.268V69.4534H105.046V67.7263H111.731L111.434 69.4534H109.334" fill="black"/>
<path d="M113.696 76.6335L113.993 74.8088C114.811 75.1664 115.624 75.344 116.432 75.344C117.346 75.344 117.801 75.0076 117.801 74.3323C117.801 74.0542 117.695 73.8261 117.484 73.6487C117.272 73.4712 116.848 73.249 116.215 72.9841C115.341 72.6265 114.734 72.2902 114.39 71.9724C113.9 71.5089 113.656 70.9074 113.656 70.1658C113.656 69.2282 114.014 68.5398 114.726 68.1028C115.283 67.7452 116.043 67.5676 117.007 67.5676C117.891 67.5676 118.691 67.7399 119.406 68.0842L119.07 69.8694C118.275 69.5118 117.568 69.3342 116.946 69.3342C116.098 69.3342 115.677 69.6042 115.677 70.1472C115.677 70.3194 115.767 70.4758 115.945 70.6135C116.125 70.7512 116.49 70.9392 117.047 71.1775C117.971 71.5615 118.62 71.9245 118.99 72.2688C119.533 72.772 119.804 73.3919 119.804 74.1335C119.804 75.1638 119.48 75.937 118.832 76.4534C118.265 76.9037 117.476 77.1262 116.472 77.1262C115.375 77.1288 114.448 76.9645 113.696 76.6335Z" fill="black"/>
<path d="M52.8643 71.7947C52.8643 72.2052 52.6657 72.4094 52.2684 72.4094H50.0277V69.6335H52.2684C52.4538 69.6335 52.5995 69.6971 52.7054 69.8215C52.8113 69.9486 52.8643 70.1102 52.8643 70.3088V71.7947ZM53.974 68.3435C53.5237 67.933 52.949 67.7292 52.2472 67.7292H48.142V76.991H50.1866V74.3132H52.2075C53.0418 74.3132 53.696 74.0405 54.1727 73.5002C54.5673 73.0367 54.766 72.457 54.766 71.7551V70.2664C54.766 69.4612 54.5037 68.8202 53.974 68.3435Z" fill="black"/>
</svg>
