<svg width="36" height="36" viewBox="0 0 36 36" fill="none" xmlns="http://www.w3.org/2000/svg">
<path d="M17.7981 35.4672C27.4818 35.4672 35.3601 27.5905 35.3601 17.9084C35.3601 8.22629 27.4818 0.349609 17.7981 0.349609C8.11428 0.349609 0.235779 8.22629 0.235779 17.9084C0.235779 27.5905 8.11418 35.4672 17.7981 35.4672ZM17.7981 1.2446C26.9883 1.2446 34.4651 8.71989 34.4651 17.9084C34.4651 27.097 26.9882 34.5722 17.7981 34.5722C8.60778 34.5722 1.13078 27.0969 1.13078 17.9084C1.13078 8.71979 8.60778 1.2446 17.7981 1.2446Z" fill="white"/>
<path d="M16.4032 19.0558L10.9453 25.4001H12.2386L16.9776 19.8914L20.7627 25.4001H25.1283L19.4045 17.07L25.1283 10.417H23.8349L18.8304 16.2343L14.8331 10.417H10.4675L16.4032 19.0558ZM12.2381 11.3464H14.2247L18.1747 16.9963L18.7546 17.8261L23.3689 24.4264H21.3823L17.6585 19.0997L17.0786 18.2702L12.2381 11.3464Z" fill="white"/>
</svg>
