<svg width="36" height="37" viewBox="0 0 36 37" fill="none" xmlns="http://www.w3.org/2000/svg">
<path d="M17.7981 0.902832C8.11428 0.902832 0.235779 8.77954 0.235779 18.4616C0.235779 28.1437 8.11418 36.0204 17.7981 36.0204C27.4819 36.0204 35.3601 28.1437 35.3601 18.4616C35.3601 8.77954 27.4819 0.902832 17.7981 0.902832ZM17.7981 35.1254C8.60778 35.1254 1.13078 27.6501 1.13078 18.4616C1.13078 9.27304 8.60778 1.79782 17.7981 1.79782C26.9884 1.79782 34.4651 9.27314 34.4651 18.4616C34.4651 27.6502 26.9884 35.1254 17.7981 35.1254Z" fill="white"/>
<path fill-rule="evenodd" clip-rule="evenodd" d="M27.7839 13.9114C27.4742 11.6953 26.3583 11.3176 24.1256 11.1291C23.1641 11.0514 22.1372 10.9956 21.1418 10.959C20.1454 10.9232 19.1787 10.9058 18.3377 10.9058C16.6373 10.9058 14.4221 10.9739 12.5323 11.1292C10.3171 11.3176 9.14968 11.6954 8.83998 13.9115C8.77978 14.4271 8.73268 15.0318 8.70038 15.687C8.66898 16.3414 8.65149 17.0454 8.65149 17.7582C8.65149 19.1838 8.71949 20.626 8.83989 21.6049C9.14959 23.855 10.317 24.1988 12.5322 24.3872C13.4771 24.4814 14.5031 24.5373 15.5056 24.5696C16.5089 24.6019 17.4878 24.6106 18.3376 24.6106C20.0206 24.6106 22.2018 24.5766 24.1256 24.3872C26.3582 24.1988 27.4741 23.855 27.7839 21.6049C27.8616 21.1155 27.9174 20.51 27.9532 19.8486C27.9898 19.1882 28.0073 18.471 28.0073 17.7582C28.0073 16.3326 27.9384 14.9418 27.7839 13.9114ZM16.3799 20.6948V14.8554L21.4123 17.7581L16.3799 20.6948Z" fill="white"/>
</svg>
